<?xml version="1.0" encoding="UTF-8"?>
<!DOCTYPE svg PUBLIC "-//W3C//DTD SVG 1.1//EN" "http://www.w3.org/Graphics/SVG/1.1/DTD/svg11.dtd">
<!-- Creator: CorelDRAW 2017 -->
<svg xmlns="http://www.w3.org/2000/svg" xml:space="preserve" width="356px" height="357px" version="1.1" shape-rendering="geometricPrecision" text-rendering="geometricPrecision" image-rendering="optimizeQuality" fill-rule="evenodd" clip-rule="evenodd"
viewBox="0 0 265.17 266.32"
 xmlns:xlink="http://www.w3.org/1999/xlink">
 <g id="Layer_x0020_1">
  <metadata id="CorelCorpID_0Corel-Layer"/>
  <g id="_1741525711184">
   <rect fill="#393185" width="265.17" height="266.32"/>
   <polygon fill="#00A0E3" points="133.05,0 132.14,0 0.02,266.32 34.3,266.32 132.59,68.19 230.88,266.32 265.17,266.32 "/>
   <path fill="#A2D9F7" fill-rule="nonzero" d="M84.88 266.32c15.18,-7.47 28.85,-18.36 40.34,-31.87 22.88,-26.9 37.12,-64.13 37.29,-105.32 0.2,-49.77 17.36,-94.72 44.94,-127.14 0.57,-0.67 1.14,-1.33 1.72,-1.99l43.31 0c-9.77,6.56 -18.72,14.62 -26.64,23.93 -22.88,26.9 -37.12,64.13 -37.28,105.32 -0.2,49.78 -17.37,94.72 -44.95,127.15 -2.93,3.45 -5.99,6.76 -9.16,9.92l-49.57 0z"/>
  </g>
 </g>
</svg>
