<?xml version="1.0" encoding="UTF-8"?>
<!DOCTYPE svg PUBLIC "-//W3C//DTD SVG 1.1//EN" "http://www.w3.org/Graphics/SVG/1.1/DTD/svg11.dtd">
<!-- Creator: CorelDRAW 2017 -->
<svg xmlns="http://www.w3.org/2000/svg" xml:space="preserve" width="800px" height="691px" version="1.1" shape-rendering="geometricPrecision" text-rendering="geometricPrecision" image-rendering="optimizeQuality" fill-rule="evenodd" clip-rule="evenodd"
viewBox="0 0 780.35 673.55"
 xmlns:xlink="http://www.w3.org/1999/xlink">
 <g id="Layer_x0020_1">
  <metadata id="CorelCorpID_0Corel-Layer"/>
  <g id="_2414659013312">
   <g>
    <path fill="#D45611" d="M226.77 333.24l0.72 36.37 21.3 0.24 0.22 7.48 -32.01 0 0 -44.09 -0.62 45.55 33.48 -0.35 -0.26 -9.92 -21.25 -0.26c0,-7.99 1.29,-29.64 -1.58,-35.02z"/>
    <path fill="#D45611" d="M192.39 355.87l-11.21 0.72 -0.01 -13.13 9.94 0.3c-1.32,-3.41 -7.6,-1.83 -10.8,-1.16l-0.68 14.3c6.65,1.69 8.2,2.52 12.76,-1.03z"/>
   </g>
   <g>
    <path fill="#A0A089" d="M651.49 276.82l-54.09 0 0 -73.7 -1.65 4.81c-1.32,11.3 -0.2,65.82 1.35,69.96 8.42,1.21 18.72,0.49 27.4,0.49 7.1,0 21.54,1.54 26.99,-1.56z"/>
    <path fill="#A0A089" d="M223.51 276.61c2.19,1.9 -0.55,0.81 3.21,1.65l13.13 -0.37c2.36,-6.28 2.45,-71.73 -1.07,-74.38l0.77 73.34 -16.04 -0.24z"/>
   </g>
   <g>
    <path fill="#FE0000" d="M270.88 344.6c18.19,-9.47 25.67,17.04 12.89,22.91 -11.06,5.08 -23.1,-2.54 -19.35,-15.96 1.45,-5.18 3.11,-5.21 6.46,-6.95zm-18.43 14.41c2.77,27.72 52.32,25.7 48.93,-5.8 -3.13,-29.07 -52.18,-26.8 -48.93,5.8z"/>
    <polygon fill="#FE0000" points="421.61,378.38 456.71,378.38 456.72,369.51 433.12,369.51 432.52,359.94 452.44,359.94 453.22,351.14 432.63,351.14 432.94,342.2 455.97,342.09 455.97,333.71 421.62,333.34 "/>
    <path fill="#FE0000" d="M80.33 378.38c11.71,0 23.41,0 35.11,0l0 -8.87 -23.7 0 -0.5 -9.57 19.87 0 0.82 -8.8 -20.68 0 0.41 -8.94 23.03 -0.11 -0.01 -8.38 -34.34 -0.37 -0.01 45.04z"/>
    <path fill="#FE0000" d="M119.91 333.6c3.49,7.82 10.55,13.85 14.35,22.26 -4.84,8.6 -10.45,13.3 -15.19,22.52 17.28,0 10.58,0.14 20.05,-11l2.56 -2.51c12.04,13.86 4.08,13.66 22.22,13.45 -2.81,-7.23 -11.1,-16.16 -15.54,-22.52 3.15,-7.5 10.47,-13.55 14.65,-22.46l-12.51 0c-1.82,4.57 -4.58,9.57 -8.82,12.72 -11.39,-10.2 -1.29,-13.38 -21.77,-12.46z"/>
    <path fill="#FE0000" d="M332.67 365.3c-4.82,8.84 -14.73,3.02 -22.84,0.13l-3.36 8.88c12.08,4.96 31.68,7.71 36.52,-4.4 7.55,-18.93 -18.5,-15.52 -24.33,-23.49 5.08,-8.88 12.12,-2.62 20.92,-1.56l2.25 -7.78c-11.08,-7.21 -30.6,-5.23 -33.85,5.84 -5.46,18.6 18.3,13.75 24.69,22.38z"/>
    <path fill="#FE0000" d="M192.39 355.87c-4.56,3.55 -6.11,2.72 -12.76,1.03l0.68 -14.3c3.2,-0.67 9.48,-2.25 10.8,1.16 5.87,1.4 5.72,0.86 5.41,9.48l-4.13 2.63zm-22.74 22.78l9.78 -0.28 0.38 -12.3 14.46 -1.27c20.07,-1.5 18.59,-29.53 -2.39,-30.87l-22.23 0.23 0 44.49z"/>
    <path fill="#FE0000" d="M367.9 333.64l18.62 44.74 11.65 -0.16 18.67 -44.87 -10.88 0.24 -12.15 29.15c-0.31,-0.32 -0.67,-0.78 -0.86,-1.03l-7.01 -14.21c-6.4,-15.79 -3.59,-14.25 -18.04,-13.86z"/>
    <polygon fill="#FE0000" points="226.77,333.24 217,333.24 217,377.33 249.01,377.33 248.79,369.85 227.49,369.61 "/>
    <path fill="#FE0000" d="M351.44 378.17l11.4 -0.6 0 -43.42c-2.26,-0.55 -2.83,-1.33 -5.73,-1.08l-5.67 1.08 0 44.02z"/>
   </g>
   <g>
    <path fill="black" d="M210.08 617.74c11.11,19.03 13.73,-5.01 22.23,-11.54l-0.01 23.58 10.18 0 -0.16 -44.57c-16.45,0.01 -10.06,6.03 -22.12,22.18l-3.03 3.38c-3.27,-3.68 -7.27,-10.95 -9.88,-15.41 -5.81,-9.94 -2.68,-10.15 -15.27,-10.15l0 44.7 10.38 -0.77 0.24 -21.9 7.44 10.5z"/>
    <path fill="black" d="M140.88 606.7c2.25,2.86 4.2,5.65 6.39,9.37 12.77,21.64 12.49,-0.79 23.3,-9.56l0 23.03 9.84 -0.4 0.01 -43.55 -9.17 -0.22 -15.42 25.53 -5.48 -7.37c-1.39,-2.32 -2.97,-4.97 -4.67,-7.9 -5.3,-9.13 -3.2,-10.41 -15.28,-10.42l0.02 44.57 10.25 0 0.21 -23.08z"/>
    <path fill="black" d="M315.66 605.12l4.96 4.35c14.43,16.61 11.46,20.31 25.78,20.31l-0.01 -44.71 -10.68 0.78 0 24.02 -19.66 -22.63c-4.14,-3.16 -4.45,-2.03 -10.8,-2.03l0.01 44.7 10.4 -0.77 0 -24.02z"/>
    <path fill="black" d="M508.63 604.86l12.7 14.59c6.24,7.4 3.66,10.28 17.26,10.33l0 -44.57 -10.27 0 -0.18 25.14c-18.57,-16.88 -14.22,-27.27 -30.44,-24.5l-0.02 43.58 10.68 0.35 0.27 -24.92z"/>
    <path fill="black" d="M461.8 594.77c15.65,-4.55 23.65,19.73 7.06,25.42 -8.83,3.02 -15.52,-2.46 -16.98,-8.5 -2.65,-10.91 2.41,-14.74 9.92,-16.92zm26.39 19.02c8.89,-30.95 -39.26,-39.18 -46.93,-13.36 -9.27,31.21 38.82,41.58 46.93,13.36z"/>
    <path fill="black" d="M253.35 585.21c0,21.25 -4.38,45.02 20.42,44.94 25.31,-0.08 20.45,-23.51 20.46,-44.94l-10.87 0 -1.13 30.29c-4.89,7.36 -14.08,7.68 -17.04,-0.89 -1.56,-4.53 -0.85,-23.39 -0.84,-29.4l-11 0z"/>
    <path fill="black" d="M98.79 597.76c1.91,1.81 1.04,0.01 3.13,3.94l3.58 10.27 -11.95 -0.11 5.24 -14.1zm-15.3 32.02c7.93,-4.26 2.19,-9.43 9.43,-9.43 14.94,0 17.18,-2.3 20.1,9.43l11.79 -0.13 -19.18 -44.38c-13.05,-0.13 -11.04,-1.16 -15.75,9.72l-14.85 34.79 8.46 0z"/>
    <polygon fill="black" points="400.38,594.01 414.03,593.93 414.05,585.21 375.3,585.22 376.06,593.76 389.18,593.92 389.16,629.43 399.82,629.78 "/>
    <polygon fill="black" points="420.62,629.43 431.33,629.78 431.33,585.21 426.33,585.08 420.63,585.85 "/>
    <polygon fill="black" points="357.71,629.43 368.42,629.78 368.42,585.21 363.42,585.08 357.72,585.85 "/>
   </g>
   <g>
    <path fill="white" d="M223.51 276.61l16.04 0.24 -0.77 -73.34 -12.18 -0.2c-5.97,3.24 -21.4,35.2 -28.31,43.42 -3.58,-3.13 -23.86,-37.41 -26.62,-43.45l-15.55 0.31 0 74.03 16.99 0.16 0.2 -40.15c14.01,14.54 12.07,33.18 28.13,32.55l20.9 -31.6 1.17 38.03z"/>
    <path fill="white" d="M360.01 276.55l0.28 -40.83c1.97,1.45 0.94,0.67 2.74,2.45l6.6 7.68c2.94,3.84 5.37,6.6 8.48,10.39 5.2,6.33 13.25,14.98 16.39,21.4l16.11 0.14 0 -74.47 -17.86 0 0 42.11c-9.34,-7.1 -29.48,-38.61 -37.18,-42.1l-12.79 -0.1 0 73.33 17.23 0z"/>
    <path fill="white" d="M428.92 203.31c0,35.26 -7.93,76.73 35.19,75.81 40.75,-0.87 32.71,-40.39 32.71,-75.8l-17.97 0.6c0,30.12 5.79,60.14 -16.32,59.39 -21.73,-0.74 -15.18,-40.23 -15.18,-60l-18.43 0z"/>
    <path fill="white" d="M290.29 225.6c0.11,-0.6 0.51,-0.67 1.52,-1.29l9.2 23.64 -19.97 0 9.25 -22.35zm-24.37 52.18c4.95,-3.42 5.75,-9.97 8.73,-15.67l32.16 0.18c11.53,15.22 -4.13,15.63 26.32,15.32l-32.81 -74.27 -18.3 0.21 -32.61 74.23 16.51 0z"/>
    <path fill="white" d="M535.63 247.95c1.5,-5.94 2.73,-8.2 4.97,-13.75 2.14,-5.28 2.01,-6.7 5.45,-10.57l9.54 24.32 -19.96 0zm-6.4 14.13l32.17 -0.02c3.16,4.87 4.55,9.21 6.62,15.63l19.3 0.09 -25.23 -57.66c-8.68,-19.92 -4.71,-16.9 -25.44,-16.6l-32.54 74.35 18.44 -0.56 6.68 -15.23z"/>
    <polygon fill="white" points="651.49,276.82 651.78,262.51 615.15,262.51 615,203.36 597.4,203.12 597.4,276.82 "/>
   </g>
   <g>
    <polygon fill="#F5AB17" points="135.28,538.31 189.21,538.31 188.75,430.9 135.48,430.9 "/>
    <path fill="#F5AB17" d="M484.17 538.54c11.65,-0.6 23.37,-0.06 35.04,-0.17 11.65,-0.11 17.65,-2.29 18.28,-13.48l0.38 -80.58c-1.96,-11.05 -8.4,-13.46 -20.26,-13.47 -11.1,-0.01 -22.23,0.06 -33.34,0.06l-0.1 107.64z"/>
   </g>
   <g>
    <path fill="#FFC613" d="M188.75 430.9l0.46 107.41c23.98,20.62 14.16,26.88 60.98,26.86l174.58 0.01c32.09,0.05 45.87,-10.58 59.4,-26.64l0.1 -107.64c-17.64,-13.25 -16.33,-27 -61.08,-26.91l-174.57 0.01c-40.71,-0.04 -40.24,7.51 -59.87,26.9z"/>
    <path fill="#FFC613" d="M135.28 538.31l0.2 -107.41c-0.39,-14.08 1.64,-25.33 -14.14,-26.83 -51.67,-4.93 -39.93,7.06 -39.93,80.75 0,71.35 -11.99,86.17 41.41,80.21 14.2,-1.58 12.69,-12.58 12.46,-26.72z"/>
   </g>
   <g>
    <path fill="#4E5009" d="M597.4 203.12l17.6 0.24 0.15 59.15 36.63 0 -0.29 14.31c-5.45,3.1 -19.89,1.56 -26.99,1.56 -8.68,0 -18.98,0.72 -27.4,-0.49 -1.55,-4.14 -2.67,-58.66 -1.35,-69.96l1.65 -4.81zm-74.85 74.19l-18.44 0.56 32.54 -74.35c20.73,-0.3 16.76,-3.32 25.44,16.6l25.23 57.66 -19.3 -0.09c-2.07,-6.42 -3.46,-10.76 -6.62,-15.63l-32.17 0.02 -6.68 15.23zm-256.63 0.47l-16.51 0 32.61 -74.23 18.3 -0.21 32.81 74.27c-30.45,0.31 -14.79,-0.1 -26.32,-15.32l-32.16 -0.18c-2.98,5.7 -3.78,12.25 -8.73,15.67zm163 -74.47l18.43 0c0,19.77 -6.55,59.26 15.18,60 22.11,0.75 16.32,-29.27 16.32,-59.39l17.97 -0.6c0,35.41 8.04,74.93 -32.71,75.8 -43.12,0.92 -35.19,-40.55 -35.19,-75.81zm-190.14 0.2c3.52,2.65 3.43,68.1 1.07,74.38l-13.13 0.37c-3.76,-0.84 -1.02,0.25 -3.21,-1.65l-1.17 -38.03 -20.9 31.6c-16.06,0.63 -14.12,-18.01 -28.13,-32.55l-0.2 40.15 -16.99 -0.16 0 -74.03 15.55 -0.31c2.76,6.04 23.04,40.32 26.62,43.45 6.91,-8.22 22.34,-40.18 28.31,-43.42l12.18 0.2zm121.23 73.04c-2.22,3.34 -12.94,1.87 -17.62,1.26l0.39 -74.59 12.79 0.1c7.7,3.49 27.84,35 37.18,42.1l0 -42.11 17.86 0 0 74.47 -16.11 -0.14c-3.14,-6.42 -11.19,-15.07 -16.39,-21.4 -3.11,-3.79 -5.54,-6.55 -8.48,-10.39l-6.6 -7.68c-1.8,-1.78 -0.77,-1 -2.74,-2.45l-0.28 40.83zm-317.05 -83.33c0.63,11.03 7.48,33.09 10.42,44.88 16.31,65.49 37.49,58.6 111.89,58.6l449.8 0c36.9,0 74.19,5.93 94.83,-17.45 9.86,-11.18 12.4,-22.53 16.73,-39.9 3.02,-12.13 10.09,-34.88 10.74,-46.12 0.34,-4.39 0.68,-1.57 -1.2,-3.87l-693.58 0 1.58 0c-1.93,2.36 -2.76,-3.26 -1.21,3.86z"/>
    <path fill="#4E5009" d="M192 135.65l59.77 -0.01 26.07 -58.82c3.36,-8.12 6.56,-12.93 8.53,-21.35l207.6 0c1.96,8.44 4.98,12.57 8.08,20.22l26.52 59.95 59.76 0.03c-1.26,-5.41 -4.1,-9.53 -6.07,-14.37l-45.15 -101.11c-10.95,-24.82 -30.16,-19.77 -63.59,-19.77l-166.71 0c-33.43,0 -52.63,-5.05 -63.59,19.77l-51.22 115.46z"/>
    <path fill="#4E5009" d="M535.63 247.95l19.96 0 -9.54 -24.32c-3.44,3.87 -3.31,5.29 -5.45,10.57 -2.24,5.55 -3.47,7.81 -4.97,13.75z"/>
    <path fill="#4E5009" d="M281.04 247.95l19.97 0 -9.2 -23.64c-1.01,0.62 -1.41,0.69 -1.52,1.29l-9.25 22.35z"/>
   </g>
   <g>
    <path fill="#71801C" d="M420.63 585.85l5.7 -0.77 5 0.13 0 44.57 -10.71 -0.35 0.01 -43.58zm-62.91 0l5.7 -0.77 5 0.13 0 44.57 -10.71 -0.35 0.01 -43.58zm-274.23 43.93l-8.46 0 14.85 -34.79c4.71,-10.88 2.7,-9.85 15.75,-9.72l19.18 44.38 -11.79 0.13c-2.92,-11.73 -5.16,-9.43 -20.1,-9.43 -7.24,0 -1.5,5.17 -9.43,9.43zm169.86 -44.57l11 0c-0.01,6.01 -0.72,24.87 0.84,29.4 2.96,8.57 12.15,8.25 17.04,0.89l1.13 -30.29 10.87 0c-0.01,21.43 4.85,44.86 -20.46,44.94 -24.8,0.08 -20.42,-23.69 -20.42,-44.94zm234.84 28.58c-8.11,28.22 -56.2,17.85 -46.93,-13.36 7.67,-25.82 55.82,-17.59 46.93,13.36zm-172.53 15.35l-10.4 0.77 -0.01 -44.7c6.35,0 6.66,-1.13 10.8,2.03l19.66 22.63 0 -24.02 10.68 -0.78 0.01 44.71c-14.32,0 -11.35,-3.7 -25.78,-20.31l-4.96 -4.35 0 24.02zm-113.02 -21.9l-0.24 21.9 -10.38 0.77 0 -44.7c12.59,0 9.46,0.21 15.27,10.15 2.61,4.46 6.61,11.73 9.88,15.41l3.03 -3.38c12.06,-16.15 5.67,-22.17 22.12,-22.18l0.16 44.57 -10.18 0 0.01 -23.58c-8.5,6.53 -11.12,30.57 -22.23,11.54l-7.44 -10.5zm-61.97 22.54l-10.25 0 -0.02 -44.57c12.08,0.01 9.98,1.29 15.28,10.42 1.7,2.93 3.28,5.58 4.67,7.9l5.48 7.37 15.42 -25.53 9.17 0.22 -0.01 43.55 -9.84 0.4 0 -23.03c-10.81,8.77 -10.53,31.2 -23.3,9.56 -2.19,-3.72 -4.14,-6.51 -6.39,-9.37l-0.21 23.08zm367.69 0l-10.68 -0.35 0.02 -43.58c16.22,-2.77 11.87,7.62 30.44,24.5l0.18 -25.14 10.27 0 0 44.57c-13.6,-0.05 -11.02,-2.93 -17.26,-10.33l-12.7 -14.59 -0.27 24.92zm-108.54 0l-10.66 -0.35 0.02 -35.51 -13.12 -0.16 -0.76 -8.54 38.75 -0.01 -0.02 8.72 -13.65 0.08 -0.56 35.77zm137.67 -104.89c-0.63,11.19 -6.63,13.37 -18.28,13.48 -11.67,0.11 -23.39,-0.43 -35.04,0.17 -13.53,16.06 -27.31,26.69 -59.4,26.64l-174.58 -0.01c-46.82,0.02 -37,-6.24 -60.98,-26.86l-53.93 0c0.23,14.14 1.74,25.14 -12.46,26.72 -53.4,5.96 -41.41,-8.86 -41.41,-80.21 0,-73.69 -11.74,-85.68 39.93,-80.75 15.78,1.5 13.75,12.75 14.14,26.83l53.27 0c19.63,-19.39 19.16,-26.94 59.87,-26.9l174.57 -0.01c44.75,-0.09 43.44,13.66 61.08,26.91 11.11,0 22.24,-0.07 33.34,-0.06 11.86,0.01 18.3,2.42 20.26,13.47 44.36,-0.64 88.19,5.12 129.48,19.7 10.77,3.81 30.29,8.46 31.25,19.4 1.16,13.03 -18.25,17.28 -29.28,21.05 -12.33,4.23 -25.33,8.39 -38.97,11.38 -31.43,6.9 -59.39,9.6 -92.86,9.05zm-320.49 -191.65l9.77 0c2.87,5.38 1.58,27.03 1.58,35.02l21.25 0.26 0.26 9.92 -33.48 0.35 0.62 -45.55zm134.44 0.91l5.67 -1.08c2.9,-0.25 3.47,0.53 5.73,1.08l0 43.42 -11.4 0.6 0 -44.02zm-98.99 24.86c-3.25,-32.6 45.8,-34.87 48.93,-5.8 3.39,31.5 -46.16,33.52 -48.93,5.8zm-58.18 5.79c-5.29,3.21 -3.49,2.29 -13.27,2.08 0,6.34 0.86,7.01 -1.57,11.49l-9.78 0.28c-3.42,-6.28 -2.13,-40.96 -0.29,-45.43 6.54,-0.96 17.93,-1.62 22.52,0.71 20.98,1.34 22.46,29.37 2.39,30.87zm227.35 -31.46l34.35 0.37 0 8.38 -23.03 0.11 -0.31 8.94 20.59 0 -0.78 8.8 -19.92 0 0.6 9.57 23.6 0 -0.01 8.87 -35.1 0 0.01 -45.04zm-88.95 31.96c-6.39,-8.63 -30.15,-3.78 -24.69,-22.38 3.25,-11.07 22.77,-13.05 33.85,-5.84l-2.25 7.78c-8.8,-1.06 -15.84,-7.32 -20.92,1.56 5.83,7.97 31.88,4.56 24.33,23.49 -4.84,12.11 -24.44,9.36 -36.52,4.4l3.36 -8.88c8.11,2.89 18.02,8.71 22.84,-0.13zm-252.33 -31.96l34.34 0.37 0.01 8.38 -23.03 0.11 -0.41 8.94 20.68 0 -0.82 8.8 -19.87 0 0.5 9.57 23.7 0 0 8.87c-11.7,0 -23.4,0 -35.11,0l0.01 -45.04zm287.56 0.3c14.45,-0.39 11.64,-1.93 18.04,13.86l7.01 14.21c0.19,0.25 0.55,0.71 0.86,1.03l12.15 -29.15 10.88 -0.24 -18.67 44.87 -11.65 0.16 -18.62 -44.74zm-247.99 -0.04c20.48,-0.92 10.38,2.26 21.77,12.46 4.24,-3.15 7,-8.15 8.82,-12.72l12.51 0c-4.18,8.91 -11.5,14.96 -14.65,22.46 4.44,6.36 12.73,15.29 15.54,22.52 -18.14,0.21 -10.18,0.41 -22.22,-13.45l-2.56 2.51c-9.47,11.14 -2.77,11 -20.05,11 4.74,-9.22 10.35,-13.92 15.19,-22.52 -3.8,-8.41 -10.86,-14.44 -14.35,-22.26zm646.14 -144.32l-25.36 -0.14 -3.32 4.09c-0.65,11.24 -7.72,33.99 -10.74,46.12 -4.33,17.37 -6.87,28.72 -16.73,39.9 -20.64,23.38 -57.93,17.45 -94.83,17.45l-449.8 0c-74.4,0 -95.58,6.89 -111.89,-58.6 -2.94,-11.79 -9.79,-33.85 -10.42,-44.88l-3.51 -3.95 -25.16 0.01c0,143.08 0,286.15 0,429.23 0,48.88 -0.76,55.04 51.9,55.04l644.81 0c55.25,0 55.05,-4.69 55.05,-53.47 0,-143.6 0,-287.2 0,-430.8z"/>
    <path fill="#71801C" d="M461.8 594.77c-7.51,2.18 -12.57,6.01 -9.92,16.92 1.46,6.04 8.15,11.52 16.98,8.5 16.59,-5.69 8.59,-29.97 -7.06,-25.42z"/>
    <path fill="#71801C" d="M270.88 344.6c-3.35,1.74 -5.01,1.77 -6.46,6.95 -3.75,13.42 8.29,21.04 19.35,15.96 12.78,-5.87 5.3,-32.38 -12.89,-22.91z"/>
    <path fill="#71801C" d="M192.39 355.87l4.13 -2.63c0.31,-8.62 0.46,-8.08 -5.41,-9.48l-9.94 -0.3 0.01 13.13 11.21 -0.72z"/>
   </g>
   <path fill="#606713" d="M14.29 189.28l25.16 -0.01 3.51 3.95c-1.55,-7.12 -0.72,-1.5 1.21,-3.86l-1.58 0 693.58 0c1.88,2.3 1.54,-0.52 1.2,3.87l3.32 -4.09 25.36 0.14c10.3,-0.57 14.02,-6.71 14.27,-17.35 1.06,-43.85 -29.67,-36.25 -61.45,-36.25 -43.51,0 -87.03,0.08 -130.54,-0.01l-59.76 -0.03 -276.8 0 -59.77 0.01 -160.46 -0.01c-22.68,-0.2 -31.71,12.25 -31.54,34.69 0.09,11.58 3.3,18.34 14.29,18.95z"/>
   <path fill="#192D31" d="M537.49 524.89c33.47,0.55 61.43,-2.15 92.86,-9.05 13.64,-2.99 26.64,-7.15 38.97,-11.38 11.03,-3.77 30.44,-8.02 29.28,-21.05 -0.96,-10.94 -20.48,-15.59 -31.25,-19.4 -41.29,-14.58 -85.12,-20.34 -129.48,-19.7l-0.38 80.58z"/>
   <path fill="#C85E13" d="M169.65 378.65l0 -44.49 22.23 -0.23c-4.59,-2.33 -15.98,-1.67 -22.52,-0.71 -1.84,4.47 -3.13,39.15 0.29,45.43z"/>
   <path fill="#6E7E1A" d="M93.55 611.86l11.95 0.11 -3.58 -10.27c-2.09,-3.93 -1.22,-2.13 -3.13,-3.94l-5.24 14.1z"/>
   <path fill="#ABAB98" d="M360.01 276.55l-17.23 0 0 -73.33 -0.39 74.59c4.68,0.61 15.4,2.08 17.62,-1.26z"/>
   <path fill="#DE500F" d="M179.43 378.37c2.43,-4.48 1.57,-5.15 1.57,-11.49 9.78,0.21 7.98,1.13 13.27,-2.08l-14.46 1.27 -0.38 12.3z"/>
  </g>
 </g>
</svg>
