<?xml version="1.0" encoding="UTF-8"?>
<svg xmlns="http://www.w3.org/2000/svg" xml:space="preserve" width="560px" height="560px" version="1.1" shape-rendering="geometricPrecision" text-rendering="geometricPrecision" image-rendering="optimizeQuality" fill-rule="evenodd" clip-rule="evenodd" viewBox="0 0 850.2 850.1" xmlns:xlink="http://www.w3.org/1999/xlink">
 <g>
  <path fill="#2E7307" d="M491.09 786.5c11.1,-1.5 21.78,-6.59 19.75,-19.95 -2.12,-13.89 -14.41,-10.16 -26.57,-10.1 -21.96,-53.68 -105.02,-42.55 -117.58,-0.29 -11.82,-0.73 -23.76,-2.94 -26.76,10.63 -3.33,15.01 10.29,16.49 19.05,20.1 2.85,8.94 2.32,16 6.57,25.98 9.52,22.36 32.38,37.24 59.65,37.23 19.12,-0.01 35.59,-7.42 46.81,-18.18 12.05,-11.55 16.76,-24.86 19.08,-45.42z"/>
  <path fill="#2E7307" d="M759.11 485.66c0.12,8.27 -1.81,15.84 4.04,21.33 5.68,5.34 14.37,4.81 19.57,0.3 6.04,-5.26 5.35,-9.7 6.42,-13.37 2.21,-7.57 5.85,-2.72 21.43,-9.02 54.98,-22.26 51.08,-102.94 -1.34,-121.31 -15.06,-5.28 -16.87,-0.73 -18.69,-7.23 -2.48,-8.84 -1.31,-11.36 -8.54,-16.13 -6.29,-4.15 -13.98,-1.9 -18.08,2.7 -4.64,5.21 -3.76,12.79 -3.22,21.19 -31.52,6.61 -55.34,59.7 -28.91,99.1 10.28,15.32 19.18,16.12 27.32,22.44z"/>
  <path fill="#2E7307" d="M59.26 359.31c-14.62,4.58 -25.89,2.7 -42.03,20.18 -31.27,33.84 -21.62,102.99 42.47,110.05 2.97,10.24 5.36,21.97 17.93,21.43 18.31,-0.79 12.38,-20.08 14.27,-26.49 24.12,-12.08 38.44,-30.53 37.94,-61.07 -0.32,-20.11 -8.99,-39.19 -23.9,-50.61 -6.61,-5.07 -9.88,-5.91 -16.42,-9.27 -0.17,-11.53 2.2,-23.84 -11.93,-25.23 -13.93,-1.38 -16.78,9.96 -18.33,21.01z"/>
  <path fill="#2E7307" d="M143.38 229.55c12.46,2.62 19.28,9.61 41.55,4.13 13.05,-3.22 23.88,-10.58 31.87,-18.67 17.37,-17.6 27.85,-48.57 12.83,-74.06 28.3,-18.67 4.02,-40.65 -14.2,-27.1 -7.56,5.62 -4.9,2.11 -16.09,-3.66 -52.79,-27.21 -114.61,33.74 -87.55,87.66 3.28,6.53 9.21,9.91 5.55,16.16 -3.28,5.63 -8.83,10.48 -4.73,19.45 2.75,6.03 8.93,8.5 16.43,7.42 7.97,-1.16 9.86,-6.82 14.34,-11.33z"/>
  <path fill="#2E7307" d="M640.09 117.92c-8.29,-4 -17.17,-14.21 -27.97,-3.09 -10.12,10.41 1.09,21.13 7.94,25.59 -0.05,5.77 -4.36,12.46 -5.44,18.97 -6.65,40 28.84,79.96 72.48,76.28 8.25,-0.69 14.06,-4.84 21.55,-5.22 10.51,20.89 32.24,11.87 30.14,-5.36 -0.84,-6.87 -4.56,-8.97 -7.14,-14.21 3.64,-9.05 16.4,-20.35 13.81,-45.76 -3.68,-36.11 -42.53,-71.32 -85.43,-57.79 -9.73,3.07 -12.68,6.8 -19.94,10.59z"/>
  <path fill="#2E7307" d="M360.96 55.1c-10.81,2.87 -22.21,2.9 -22.22,17.22 -0.02,14.97 12.24,14.11 24.26,13.13 3.41,6.26 4.2,10.92 8.42,17.07 3.96,5.77 8.18,9.89 13.2,13.59 28.99,21.38 73.54,15.8 93.41,-12.16 5.19,-7.32 5.54,-11.78 9.4,-17.68 7.35,0.17 10.52,2 16.99,-1.63 4.15,-2.33 7.65,-6.69 7.92,-12.33 0.83,-17.12 -18.87,-12.91 -22.21,-18.07 -0.15,-0.24 -3.39,-12.72 -4.07,-14.43 -23.74,-60.01 -119.37,-49.96 -125.1,15.29z"/>
  <path fill="#2E7307" d="M741.65 253.56c-18.79,8.9 -5.48,20.6 -0.13,37.86 4.08,13.19 9.3,36.66 27.38,30.8 20.77,-6.73 -1.46,-44.53 -8.75,-61.06 -2.83,-6.41 -10.05,-11.61 -18.5,-7.6z"/>
  <path fill="#2E7307" d="M298.76 71.26l-39.79 17.97c-12.83,8.25 -7.86,33.81 16.96,24.15l40.75 -16.95c13.7,-8.43 5.39,-32.77 -17.92,-25.17z"/>
  <path fill="#2E7307" d="M98.85 253.98c-12.29,4.77 -16.84,23.73 -20.82,36.89 -2.1,6.91 -7.1,15.21 -4.81,22.97 2.15,7.27 11.1,11.65 19.9,7.59 11.08,-5.1 13.53,-25.27 18.81,-38.64 2.37,-5.98 8.74,-11.98 5.81,-20.61 -2.42,-7.16 -10.49,-11.45 -18.89,-8.2z"/>
  <path fill="#2E7307" d="M774.64 544.37c6.75,-16.82 -16.78,-28.63 -28.1,-8.7 -3.56,6.26 -5.37,13.95 -8.02,21.38 -4.55,12.78 -7.64,15.76 -8.89,19.19 -5.29,14.45 15.15,27.98 28.27,9.66 7.34,-10.26 11.38,-28.16 16.74,-41.53z"/>
  <path fill="#2E7307" d="M83.14 564.55c2.59,7.21 4.58,13.96 8.44,19.97 11.67,18.16 30.8,10.68 29.14,-7.17 -1.07,-11.6 -13.15,-26.56 -17.07,-40.02 -6.22,-21.36 -32.6,-11.51 -28.63,5.86l8.12 21.36z"/>
  <path fill="#2E7307" d="M607.41 223.81c-7.36,2.75 -26.11,23.98 -31.64,29.61 -4.29,4.37 -12.38,9.52 -8.65,20.12 1.91,5.4 10.09,12.66 19.35,9.12 3.42,-1.31 28.47,-26.67 31.33,-29.48 4.01,-3.93 12.03,-10.43 8.13,-19.92 -2.69,-6.54 -10.29,-12.51 -18.52,-9.45z"/>
  <path fill="#2E7307" d="M256.81 746.34c4.14,13.16 51.98,27.46 58.84,25.68 6.77,-1.76 11.86,-9.64 9.5,-18.14 -2.69,-9.72 -9.19,-8.92 -17.49,-11.96 -6.02,-2.2 -13.57,-6.32 -19.28,-9.23 -5.15,-2.62 -13.73,-7.37 -22.45,-4.78 -6.55,1.94 -12.25,8.47 -9.12,18.43z"/>
  <path fill="#2E7307" d="M235.26 223.9c-6.52,2.51 -13.33,8.34 -10.59,18.32 1.49,5.45 23.81,26.06 29.41,31.75 4.62,4.7 10.26,11.99 20.12,8.82 6.37,-2.04 12.09,-9.75 9.64,-18.62 -1.38,-4.99 -24.34,-26.56 -29.52,-31.57 -5.54,-5.37 -10.12,-12.13 -19.06,-8.7z"/>
  <path fill="#2E7307" d="M169.21 439.24l23.48 0.05c13.11,0.04 23.38,0.93 26.47,-10.58 6.22,-23.12 -26.44,-18.81 -44.08,-18.77 -13.63,0.03 -27.51,-1.24 -28.55,13.53 -0.98,13.98 10.29,15.74 22.68,15.77z"/>
  <path fill="#2E7307" d="M592.59 748.69c4.62,-8.55 0.7,-16.75 -5.38,-20.05 -8.88,-4.82 -15.23,1.53 -21.91,4.17 -10.44,4.1 -32.25,8.25 -38,18.1 -4.84,8.29 -0.66,16.18 5.32,19.5 7.19,3.99 16.93,0.94 23.05,-1.55 7.6,-3.09 12.98,-6.07 19.2,-9.14 7.63,-3.76 14.05,-4.26 17.72,-11.03z"/>
  <path fill="#2E7307" d="M566.8 585.47c0.69,2.35 24.09,25.97 29.29,31.1 5.23,5.16 10.15,12.26 19.65,9.01 5.7,-1.96 12.62,-9.22 10.11,-18.69 -1.44,-5.44 -22.86,-24.98 -29.48,-31.77 -5.48,-5.61 -10.14,-12.14 -20.12,-8.61 -5.37,1.9 -12.17,9.71 -9.45,18.96z"/>
  <path fill="#2E7307" d="M650.65 439.22l36.41 0.09c22.97,0.01 22.83,-29.45 0,-29.43l-35.23 0.08c-11.14,0.03 -20.43,2.1 -21.03,13.49 -0.66,12.38 8.62,15.76 19.85,15.77z"/>
  <path fill="#2E7307" d="M282 587.82c5.59,-8.24 -0.93,-18.41 -7.55,-20.93 -10.43,-3.98 -15.75,3.54 -20.44,8.27 -4.93,4.98 -26.35,24.62 -29.03,29.53 -4.33,7.95 1.77,16.8 7.65,19.61 10.07,4.8 15.87,-2.46 20.2,-6.84 5.34,-5.4 9.18,-9.25 14.67,-14.73 4.27,-4.26 11.43,-10.4 14.5,-14.91z"/>
  <path fill="#2E7307" d="M535.8 71.17c-11.74,5.55 -14.05,22.08 10.05,30.8 6.12,2.21 14.48,4.54 20.93,7.16 7.3,2.97 12.8,9.12 21.54,5.3 6.53,-2.86 10.78,-10.71 7.65,-18.95 -2.69,-7.08 -10.47,-9.07 -17.39,-12.27 -9.28,-4.28 -33.66,-16.35 -42.78,-12.04z"/>
  <path fill="#2D7206" d="M729.13 634.79c1.85,-5.95 5.55,-6.58 6.36,-14.12 1.68,-15.62 -17.33,-25.39 -31.37,-3.15 -7.58,-1.37 -10.98,-3.86 -20.56,-4.13 -19.77,-0.57 -35.63,6.53 -49.33,20.24 -7.27,7.28 -14.21,17.89 -17.58,29.01 -2,6.61 -2.59,13.94 -2.21,21.53 0.4,7.83 3.89,12.6 3.13,18.72 -7.98,4.28 -17.36,13.96 -10.25,24.55 9.33,13.88 26.01,0.63 28.07,-0.1 7.21,4.34 10.58,8.89 20.03,12.96 42.52,18.32 88.21,-17.98 90.75,-58.5 1.59,-25.25 -10.4,-35.11 -17.04,-47.01z"/>
  <path fill="#2F7406" d="M121.28 606.89c-12.24,8.81 -4.43,19.8 0.71,27.9 -9.27,14.38 -18.98,24.71 -17.25,46.9 2.63,33.71 32.95,62.68 65.61,63.57 26.53,0.72 38,-14.96 45.83,-17.75 22.98,17.44 44.73,-7.79 16.82,-24.62 -0.36,-5.49 3.06,-12.27 3.39,-19.91 1.35,-31.67 -20.88,-59.38 -50.26,-67.54 -17.2,-4.78 -25.09,-1.16 -39.23,2.35 -4.92,-6.62 -13.47,-19.65 -25.62,-10.9z"/>
  <path fill="#2E7307" d="M409.14 155.59c-3.26,7.14 -1.46,35.42 -1.38,43.31 0.06,6.12 -2,15.48 8.13,20.32 5.17,2.47 16.09,1.81 20.12,-7.26 1.49,-3.34 1.23,-38.98 1.26,-42.99 0.04,-5.62 1.11,-15.89 -8.36,-19.82 -6.54,-2.72 -16.13,-1.56 -19.77,6.44z"/>
  <path fill="#689F34" d="M415.38 456.96c-12.38,8.4 -11.15,10.25 -31.1,9.33 0.4,0.25 0.98,0.65 2.11,1.04 5.06,1.73 10.77,0.42 15.97,-0.22l-0.02 17.11c-5.15,1.95 -17.25,0.11 -22.54,1.21 2.55,2.47 16.17,1.42 20.52,0.87 3.09,-0.38 6.04,-0.83 9.04,-1.7 2.51,-0.73 5.51,-2.14 7.55,-2.66 1.55,-2.33 2.62,-1.69 2.92,-4.28 0,-3.91 0.24,-8.55 0.03,-12.36 -0.36,-6.67 -2.06,-2.79 -0.82,-10.12 -3.39,0.99 -0.54,-0.44 -3.66,1.78z"/>
  <path fill="#689F34" d="M499.67 487.05l9.39 -0.62 -0.06 -16.1 -14.36 -0.75c-1.07,-4.97 -0.4,-0.5 1.14,-2.48l0.28 -0.07 -1.09 0.02c-1.5,1.48 -0.85,0.28 -1.4,2.41 2.16,1.87 3.57,1.12 6.08,1.9l0.02 15.69z"/>
  <path fill="#6DA339" d="M374.89 368.25c3.25,0.36 12.43,-0.75 17.9,-0.45l-0.08 15.58 -1.89 0.64c-0.25,0.09 -1.07,0.34 -1.33,0.44 -0.23,0.09 -0.46,0.18 -0.67,0.27l-2 1.12c12.05,-0.04 22.29,2 28.11,9.66 3.1,1.37 2.13,1.58 4.7,3.54 0,-2.5 0,-5 0.02,-7.5 0.01,-0.9 0.07,-2.48 0.02,-3.3 -0.42,-6.19 -2.62,-3.12 -0.96,-8.97 0.9,-3.18 1.17,-2.19 0.66,-6.45l-10.65 -5.09c-6.95,-0.4 -29.1,-4.22 -33.83,0.51z"/>
  <path fill="#6DA339" d="M483.91 411.74l11.04 -0.49 0.01 13.12c-1.36,0.84 -1.06,0.41 -2.24,1.13 -1.96,1.2 -0.54,0.08 -1.81,1.34 11.84,-0.11 10.91,9.95 6.97,14.38 -2.36,2.66 -2.7,1.64 -4.49,4.97 4.71,-1.45 1.26,-0.46 2.61,0.31 0.02,6.11 1.29,16.06 -1.03,20.55l1.09 -0.02c2.16,-1.02 8.77,-7.25 9.97,-8.9 2.21,-5.75 1.32,-13.75 1.32,-22.28 0,-6.09 0.8,-17.7 -0.79,-23.02 -4.2,-1.5 -18.8,-6.59 -22.65,-1.09z"/>
  <path fill="#95BD64" d="M356.4 475.2l2.74 3.01c1.74,1.38 5.68,3.7 7.97,3.55l11.61 2.77c-0.02,-18.13 1.75,-17.94 -4.03,-20.89 -3.95,-2.02 -2.89,-0.52 -4.34,-4.05 -0.45,-1.65 -4.1,-5.09 -5.31,-6.98 -1.61,-2.53 -2.57,-6.15 -4.8,-7.95 -0.01,5.43 0.9,12.36 -0.06,17.86 -1.45,8.35 1.27,2 1.27,14.88 -3.77,-1.51 -0.13,-1.26 -5.05,-2.2z"/>
  <path fill="#8DB85B" d="M483.91 411.74c-3.65,0.03 -6.7,1.54 -8.39,4.12 2.53,-0.18 3.64,-1.24 5.7,-2.35 -0.01,4.76 -0.09,9.37 -0.02,14.14 0.05,3.14 0.5,7.45 -0.37,10.33l-1.52 3.25c7.96,-3.41 3.65,-10.14 11.6,-14.39 1.27,-1.26 -0.15,-0.14 1.81,-1.34 1.18,-0.72 0.88,-0.29 2.24,-1.13l-0.01 -13.12 -11.04 0.49z"/>
  <path fill="#286D07" d="M479.31 441.23c-4.93,4.89 -13.89,-1.01 -13.55,-9.46 0.25,-6.51 4.73,-14.4 9.76,-15.91 1.69,-2.58 4.74,-4.09 8.39,-4.12 3.85,-5.5 18.45,-0.41 22.65,1.09 9.25,2.87 14.63,12.11 13.65,22.95 -0.75,8.35 -7.23,19.15 -14.18,22.35 -1.2,1.65 -7.81,7.88 -9.97,8.9l-0.28 0.07c1.69,2.84 4.3,1.76 10.66,1.87 3.37,0.06 7.44,0 9.85,1.29 5.22,2.81 7.27,10.87 2.12,15.31 -4.16,3.59 -14.06,2.48 -20.17,2.62 -5.28,0.13 -19.36,1.5 -22.41,-0.82 -1.12,0.09 -0.82,0.33 -0.82,-0.82 -16.69,-0.28 -6.39,-22.22 1.81,-25.72 1.15,-2.54 0.96,-1.98 3.17,-3.94 1.74,-1.55 1.98,-1.86 3.64,-2.49 1.37,-2.5 2.27,-2.83 4.67,-4.75 2.39,-1.91 2.91,-2.72 5.09,-3.46 1.79,-3.33 2.13,-2.31 4.49,-4.97 3.94,-4.43 4.87,-14.49 -6.97,-14.38 -7.95,4.25 -3.64,10.98 -11.6,14.39zm-61.47 -117.79c0,8.84 0.52,18.58 0.06,27.2 -0.42,8.04 -11.31,8.22 -7.63,15.75 0.1,0.19 0.32,0.44 0.4,0.59 0.09,0.15 0.4,0.69 0.47,0.56 0.07,-0.14 0.33,0.36 0.5,0.54 12.31,4.95 18.66,9.44 25.13,19.38 2.68,4.11 5.87,10.28 7.42,15.44 3.58,11.94 4.49,28.48 1.43,40.17 -8.44,32.27 -21.08,32.3 -26.94,38.87 -2.11,5.06 -0.84,39.21 -0.84,47.37 13.67,0.04 27.37,0 41.04,0 8.31,0 34.75,-1.02 40.88,0.5 9.42,1.58 31.34,-5.79 38.11,-9.17 72.04,-35.88 73.06,-145.33 5.19,-184.54 -5.54,-3.2 -30.52,-13.41 -36.34,-10.94 -12.69,-3.94 -61.24,-1.19 -67.29,-1.79l-21.59 0.07z"/>
  <path fill="#387D07" d="M401.38 323.33c-16.86,0.21 -33.86,-0.42 -50.21,1.19 -14.81,0.71 -35.86,10.68 -46.37,18.73 -13.76,10.53 -22.19,20.78 -30.2,36.22 -17.06,32.93 -12.08,78.28 6.4,106.4 19.69,29.94 50.07,44.55 86.88,44.68l115.6 0c4.6,0 13.04,1.19 16.28,-0.74 -6.13,-1.52 -32.57,-0.5 -40.88,-0.5 -13.67,0 -27.37,0.04 -41.04,0 0,-8.16 -1.27,-42.31 0.84,-47.37l-1.77 0c-2.04,0.52 -5.04,1.93 -7.55,2.66 -3,0.87 -5.95,1.32 -9.04,1.7 -4.35,0.55 -17.97,1.6 -20.52,-0.87 -3.23,0.25 -3.94,0.1 -6.94,-0.69 -1.42,-0.37 -1.96,-0.48 -2.95,-0.98 -3.58,-1.8 -0.87,0.06 -2.8,-2 -2.29,0.15 -6.23,-2.17 -7.97,-3.55l-2.74 -3.01c-2.08,-0.26 -3.14,-1.93 -4.66,-3.51 -26.52,-27.54 -18.79,-78.22 3.66,-94.23 2.03,-1.44 0.97,-0.84 2.41,-1.16l1.73 -2.08c1.92,-1.7 5.49,-3.2 7.99,-3.44 1.6,-2.2 3.97,-2.59 7.36,-2.53 4.73,-4.73 26.88,-0.91 33.83,-0.51l2.92 0.34c-0.17,-0.18 -0.43,-0.68 -0.5,-0.54 -0.07,0.13 -0.38,-0.41 -0.47,-0.56 -0.08,-0.15 -0.3,-0.4 -0.4,-0.59 -3.68,-7.53 7.21,-7.71 7.63,-15.75 0.46,-8.62 -0.06,-18.36 -0.06,-27.2l-3.19 -0.13 -13.27 0.02z"/>
  <path fill="#327707" d="M370.35 392.66c-0.06,1.04 0.04,0.56 -1.05,1.9 -11.57,14.21 -6.55,13.95 -10.63,18.68 1.19,4.63 -0.09,11.64 -0.01,16.88 0.09,4.89 2.02,11.14 1.58,14.54 2.23,1.8 3.19,5.42 4.8,7.95 1.21,1.89 4.86,5.33 5.31,6.98 4.8,1.95 7.66,4.63 13.93,6.7 19.95,0.92 18.72,-0.93 31.1,-9.33 1.34,-3.91 5.32,-8.29 6.96,-13.44 3.54,-11.1 3.49,-31.86 -3.31,-41.67 -1.59,-2.29 -2.39,-3.61 -4.1,-6.34 -5.82,-7.66 -16.06,-9.7 -28.11,-9.66 -7.33,0.55 -10.94,4.76 -16.47,6.81z"/>
  <path fill="#52921A" d="M414.93 395.51c1.71,2.73 2.51,4.05 4.1,6.34 6.8,9.81 6.85,30.57 3.31,41.67 -1.64,5.15 -5.62,9.53 -6.96,13.44 3.12,-2.22 0.27,-0.79 3.66,-1.78 -1.24,7.33 0.46,3.45 0.82,10.12 0.21,3.81 -0.03,8.45 -0.03,12.36 -0.3,2.59 -1.37,1.95 -2.92,4.28l1.77 0c5.86,-6.57 18.5,-6.6 26.94,-38.87 3.06,-11.69 2.15,-28.23 -1.43,-40.17 -1.55,-5.16 -4.74,-11.33 -7.42,-15.44 -6.47,-9.94 -12.82,-14.43 -25.13,-19.38l-2.92 -0.34 10.65 5.09c0.51,4.26 0.24,3.27 -0.66,6.45 -1.66,5.85 0.54,2.78 0.96,8.97 0.05,0.82 -0.01,2.4 -0.02,3.3 -0.02,2.5 -0.02,5 -0.02,7.5 -2.57,-1.96 -1.6,-2.17 -4.7,-3.54z"/>
  <path fill="#A7C978" d="M356.4 475.2c4.92,0.94 1.28,0.69 5.05,2.2 0,-12.88 -2.72,-6.53 -1.27,-14.88 0.96,-5.5 0.05,-12.43 0.06,-17.86 0.44,-3.4 -1.49,-9.65 -1.58,-14.54 -0.08,-5.24 1.2,-12.25 0.01,-16.88 -0.79,-4.38 0.79,-4.36 1.64,-8.83l0.29 -27.59c-0.92,-0.35 1.39,-0.85 -2.79,-0.52 -1.44,0.32 -0.38,-0.28 -2.41,1.16 -22.45,16.01 -30.18,66.69 -3.66,94.23 1.52,1.58 2.58,3.25 4.66,3.51z"/>
  <path fill="#83B151" d="M483.63 454.4c3.12,-0.48 1.06,0.26 2.55,-0.74l0.05 32.2 -7.58 0.76 -3.64 -0.07c0,1.15 -0.3,0.91 0.82,0.82l23.84 -0.32 -0.02 -15.69c-2.51,-0.78 -3.92,-0.03 -6.08,-1.9 0.55,-2.13 -0.1,-0.93 1.4,-2.41 2.32,-4.49 1.05,-14.44 1.03,-20.55 -1.35,-0.77 2.1,-1.76 -2.61,-0.31 -2.18,0.74 -2.7,1.55 -5.09,3.46 -2.4,1.92 -3.3,2.25 -4.67,4.75z"/>
  <path fill="#7FAE4C" d="M367.11 481.76c1.93,2.06 -0.78,0.2 2.8,2 0.99,0.5 1.53,0.61 2.95,0.98 3,0.79 3.71,0.94 6.94,0.69 5.29,-1.1 17.39,0.74 22.54,-1.21l0.02 -17.11c-5.2,0.64 -10.91,1.95 -15.97,0.22 -1.13,-0.39 -1.71,-0.79 -2.11,-1.04 -6.27,-2.07 -9.13,-4.75 -13.93,-6.7 1.45,3.53 0.39,2.03 4.34,4.05 5.78,2.95 4.01,2.76 4.03,20.89l-11.61 -2.77z"/>
  <path fill="#55941E" d="M506.03 458.13c6.95,-3.2 13.43,-14 14.18,-22.35 0.98,-10.84 -4.4,-20.08 -13.65,-22.95 1.59,5.32 0.79,16.93 0.79,23.02 0,8.53 0.89,16.53 -1.32,22.28z"/>
  <path fill="#87B454" d="M374.89 368.25c-3.39,-0.06 -5.76,0.33 -7.36,2.53 1.58,-0.09 4.43,-0.71 6.37,-0.52 -0.3,5.33 -2.34,4.1 -1.39,7.7 0.04,0.18 0.16,0.39 0.22,0.57l0.98 2.47c0.74,3.15 0.55,6.47 -1.03,8.62 -0.13,0.17 -0.3,0.3 -0.44,0.48 -2.18,2.81 -0.15,-1.48 -1.89,2.56 5.53,-2.05 9.14,-6.26 16.47,-6.81l2 -1.12c0.21,-0.09 0.44,-0.18 0.67,-0.27 0.26,-0.1 1.08,-0.35 1.33,-0.44l1.89 -0.64 0.08 -15.58c-5.47,-0.3 -14.65,0.81 -17.9,0.45z"/>
  <path fill="#98BF67" d="M367.53 370.78c-2.5,0.24 -6.07,1.74 -7.99,3.44l-1.73 2.08c4.18,-0.33 1.87,0.17 2.79,0.52l-0.29 27.59c-0.85,4.47 -2.43,4.45 -1.64,8.83 4.08,-4.73 -0.94,-4.47 10.63,-18.68 1.09,-1.34 0.99,-0.86 1.05,-1.9 1.74,-4.04 -0.29,0.25 1.89,-2.56 0.14,-0.18 0.31,-0.31 0.44,-0.48 1.58,-2.15 1.77,-5.47 1.03,-8.62l-0.98 -2.47c-0.06,-0.18 -0.18,-0.39 -0.22,-0.57 -0.95,-3.6 1.09,-2.37 1.39,-7.7 -1.94,-0.19 -4.79,0.43 -6.37,0.52z"/>
  <path fill="#A3C574" d="M475.52 415.86c-5.03,1.51 -9.51,9.4 -9.76,15.91 -0.34,8.45 8.62,14.35 13.55,9.46l1.52 -3.25c0.87,-2.88 0.42,-7.19 0.37,-10.33 -0.07,-4.77 0.01,-9.38 0.02,-14.14 -2.06,1.11 -3.17,2.17 -5.7,2.35z"/>
  <path fill="#508F1B" d="M499.67 487.05l-23.84 0.32c3.05,2.32 17.13,0.95 22.41,0.82 6.11,-0.14 16.01,0.97 20.17,-2.62 5.15,-4.44 3.1,-12.5 -2.12,-15.31 -2.41,-1.29 -6.48,-1.23 -9.85,-1.29 -6.36,-0.11 -8.97,0.97 -10.66,-1.87 -1.54,1.98 -2.21,-2.49 -1.14,2.48l14.36 0.75 0.06 16.1 -9.39 0.62z"/>
  <path fill="#A6C877" d="M475.01 486.55l3.64 0.07 -0.03 -25.36 -1.8 -0.43c-8.2,3.5 -18.5,25.44 -1.81,25.72z"/>
  <path fill="#96BE66" d="M483.63 454.4c-1.66,0.63 -1.9,0.94 -3.64,2.49 -2.21,1.96 -2.02,1.4 -3.17,3.94l1.8 0.43 0.03 25.36 7.58 -0.76 -0.05 -32.2c-1.49,1 0.57,0.26 -2.55,0.74z"/>
  <path fill="#2E7307" d="M411.73 634.64c-3.25,7.15 -1.46,35.42 -1.38,43.31 0.07,6.13 -2,15.49 8.14,20.33 5.17,2.47 16.08,1.8 20.12,-7.26 1.49,-3.34 1.22,-38.98 1.26,-43 0.04,-5.61 1.1,-15.88 -8.37,-19.82 -6.53,-2.71 -16.13,-1.55 -19.77,6.44z"/>
 </g>
</svg>
