<?xml version="1.0" encoding="UTF-8"?>
<!DOCTYPE svg PUBLIC "-//W3C//DTD SVG 1.1//EN" "http://www.w3.org/Graphics/SVG/1.1/DTD/svg11.dtd">
<svg xmlns="http://www.w3.org/2000/svg" xml:space="preserve" width="640px" height="640px" version="1.1" shape-rendering="geometricPrecision" text-rendering="geometricPrecision" image-rendering="optimizeQuality" fill-rule="evenodd" clip-rule="evenodd" viewBox="0 0 860.88 860.38" xmlns:xlink="http://www.w3.org/1999/xlink">
 <g>
  <g>
   <g>
    <rect fill="#EB5F5F" stroke="#E1E1E1" stroke-width="0.98" stroke-miterlimit="22.9256" x="0.49" y="0.49" width="859.89" height="650"/>
    <path fill="#00000D" d="M609.48 324.83c75.72,-11.14 138.46,47.17 147.04,112.85 10.18,77.85 -46.22,138.88 -113.21,148.08 -77.09,10.57 -139.54,-46.67 -148.1,-112.98 -10.3,-79.74 46.26,-137.94 114.26,-147.95l0.01 0zm-383.17 -0.33c75.54,-8.96 137.59,48.67 144.94,115.66 8.49,77.29 -47.99,137.94 -115.99,145.92 -76.76,9.02 -138.62,-49.21 -145.89,-115.62 -8.57,-78.28 48.08,-137.79 116.94,-145.96l0 0zm-96.99 -1.47c4.38,-28.73 12.85,-61.14 19.05,-90.01 11.8,-54.96 14.04,-141.56 86.84,-132.15 11.54,1.49 33.7,13.43 43.72,11.03 10.71,-2.56 19.45,-28.56 10.76,-36.38 -15.6,-14.03 -113.64,-37.93 -152.26,36.26 -15.73,30.21 -32.35,133.96 -41.2,176.14 -10.94,52.14 -34.21,136.1 -26.92,189.95 17.26,127.52 159.41,188.73 261.97,123.48 42,-26.72 74.23,-68.36 80.41,-135.97l42.7 0c8.16,89.31 73.88,160.17 167.04,162.19 93.35,2.03 167.24,-68.41 175.95,-154.37 5.8,-57.23 -33.96,-216.06 -47.49,-281.29 -10.77,-51.92 -13.74,-89.88 -51.35,-113.77 -60.64,-38.51 -122.41,-2.85 -124.57,0.77 -3.21,11.08 3.09,25.62 9.85,33.28 15.46,7.7 95.91,-54.25 118.96,51.75 11.09,51.01 25.97,108.46 33.98,159 -10.19,-5.03 -20.69,-14.81 -34.94,-21.94 -45.56,-22.82 -96.32,-23.7 -142.29,-4.85 -49.21,20.17 -92.16,66.98 -103.09,128.65l-47.02 0c-10.86,-61.82 -53.37,-108.35 -102.81,-128.65 -29.72,-12.19 -64.75,-17.09 -99.19,-10.07 -45.35,9.24 -55.18,25.03 -78.1,36.96l0 -0.01 0 0z"/>
    <circle fill="#4D42B3" stroke="#2B2A29" stroke-width="1.97" stroke-miterlimit="22.9256" cx="188.23" cy="508.6" r="42.65"/>
    <circle fill="#4D42B3" stroke="#2B2A29" stroke-width="1.97" stroke-miterlimit="22.9256" cx="579.66" cy="508.6" r="42.65"/>
    <rect fill="#2B2A29" x="0.49" y="648.54" width="859.89" height="211.85"/>
    <path fill="#EB5F5F" fill-rule="nonzero" d="M789.47 816.71l-36.72 0 0 -52.74c0,-4.08 -0.4,-6.92 -1.23,-8.49 -0.84,-1.57 -2.34,-2.38 -4.55,-2.38 -4.05,0 -6.05,3.65 -6.05,10.97l0 52.64 -36.72 0 0 -52.74c0,-4.08 -0.44,-6.92 -1.34,-8.49 -0.87,-1.57 -2.41,-2.38 -4.62,-2.38 -4.04,0 -6.08,3.65 -6.08,10.97l0 52.64 -36.72 0 0 -60.2c0,-10.97 3.71,-20.3 11.1,-27.99 7.39,-7.69 16.35,-11.53 26.89,-11.53 10.83,0 20.6,4.58 29.23,13.77 9.59,-9.19 19.16,-13.77 28.76,-13.77 12.2,0 21.97,4.44 29.36,13.34 5.78,6.92 8.69,17.02 8.69,30.33l0 56.05zm-199.75 -99.72c13.88,0 25.76,4.98 35.65,14.94 9.94,9.97 14.89,21.91 14.89,35.82 0,14.11 -5.02,26.15 -15.05,36.08 -10.07,9.94 -22.17,14.89 -36.35,14.89 -14.22,0 -26.36,-4.99 -36.42,-14.95 -10.07,-9.97 -15.12,-21.97 -15.12,-36.02 0,-14.31 5.05,-26.35 15.12,-36.12 10.06,-9.76 22.5,-14.65 37.28,-14.65l0 0.01zm-20.02 51.64c-3.94,0 -7.26,1.44 -10,4.28 -2.74,2.84 -4.11,6.32 -4.11,10.47 0,4.04 1.37,7.52 4.15,10.43 2.77,2.88 6.08,4.31 9.96,4.31 3.91,0 7.26,-1.43 10.03,-4.31 2.78,-2.91 4.15,-6.39 4.15,-10.43 0,-4.15 -1.37,-7.63 -4.11,-10.47 -2.74,-2.84 -6.09,-4.28 -10.07,-4.28zm-92.07 -51.64c13.88,0 25.75,4.98 35.65,14.94 9.93,9.97 14.88,21.91 14.88,35.82 0,14.11 -5.02,26.15 -15.05,36.08 -10.07,9.94 -22.17,14.89 -36.35,14.89 -14.22,0 -26.35,-4.99 -36.42,-14.95 -10.07,-9.97 -15.12,-21.97 -15.12,-36.02 0,-14.31 5.05,-26.35 15.12,-36.12 10.07,-9.76 22.51,-14.65 37.29,-14.65l0 0.01zm-20.03 51.64c-3.94,0 -7.25,1.44 -10,4.28 -2.74,2.84 -4.11,6.32 -4.11,10.47 0,4.04 1.37,7.52 4.15,10.43 2.77,2.88 6.09,4.31 9.96,4.31 3.92,0 7.26,-1.43 10.04,-4.31 2.77,-2.91 4.14,-6.39 4.14,-10.43 0,-4.15 -1.37,-7.63 -4.11,-10.47 -2.74,-2.84 -6.09,-4.28 -10.07,-4.28zm-136.54 -49.64l92.39 0 -29.96 59.19 34.48 0 0 38.53 -94.14 0 29.8 -59.59 -32.57 0c-2.54,-1.41 -4.82,-2.01 -6.9,-2.01 -6.62,0 -9.93,5.08 -9.93,15.25l0 46.35 -36.72 0 0 -53.41c0,-14.11 3.85,-25.35 11.57,-33.74 7.69,-8.4 17.99,-12.58 30.84,-12.58 2.87,0 6.88,0.87 11.13,2.01l0.01 0zm-93.18 -43.54c4.99,0 9.27,1.74 12.91,5.25 3.65,3.48 5.45,7.63 5.45,12.41 0,5.08 -1.7,9.29 -5.15,12.54 -3.44,3.28 -7.82,4.91 -13.21,4.91 -5.35,0 -9.76,-1.63 -13.21,-4.91 -3.44,-3.25 -5.15,-7.46 -5.15,-12.54 0,-4.78 1.81,-8.93 5.46,-12.41 3.64,-3.51 7.92,-5.25 12.9,-5.25l0 0zm18.16 43.54l0 97.72 -36.72 0 0 -97.72 36.72 0zm-80.66 78.79l3.81 15.32c-12.27,4.14 -25.48,6.22 -39.66,6.22 -24.45,0 -43.21,-7.33 -56.35,-21.94 -11.37,-12.67 -17.06,-28.09 -17.06,-46.32 0,-20.03 6.73,-36.82 20.17,-50.33 13.44,-13.51 30.13,-20.26 50.03,-20.26 18.69,0 34.11,5.55 46.32,16.68 12.2,11.14 18.32,25.22 18.32,42.17 0,12.88 -3.88,23.58 -11.64,32.11 -7.79,8.53 -17.55,12.77 -29.29,12.77 -6.29,0 -11.27,-1.17 -15.05,-3.47 -3.75,-2.35 -5.62,-5.46 -5.62,-9.4 0,-1.81 0.37,-4.18 1.07,-7.06l3.75 -14.24c0.27,-1.11 0.4,-2.38 0.4,-3.82 0,-5.31 -2.58,-7.96 -7.73,-7.96 -3.21,0 -5.98,1.24 -8.36,3.68 -2.37,2.48 -3.57,5.29 -3.57,8.5 0,4.18 2,6.28 5.98,6.28 1.91,0 3.71,-0.33 5.49,-0.96l-8.83 24.31c-2.08,0.36 -3.82,0.53 -5.19,0.53 -7.12,0 -12.81,-2.1 -17.02,-6.32 -4.21,-4.21 -6.32,-9.93 -6.32,-17.12 0,-11.71 4.28,-21.91 12.81,-30.57 8.53,-8.66 18.59,-13.01 30.16,-13.01 8.3,0 14.99,2.15 20.07,6.43 5.05,4.31 7.59,9.93 7.59,16.85 0,2.88 -0.43,6.05 -1.27,9.53l-2.98 11.87 -0.57 2.08c-0.53,1.9 -0.8,3.54 -0.8,4.91 0,3.15 1.44,4.72 4.28,4.72 4.45,0 8.5,-3.18 12.14,-9.5 3.65,-6.35 5.45,-13.38 5.45,-21.1 0,-13.01 -4.51,-23.58 -13.57,-31.67 -9.03,-8.13 -20.84,-12.17 -35.39,-12.17 -15.68,0 -28.62,5.28 -38.86,15.81 -10.2,10.57 -15.31,23.92 -15.31,40.03 0,13.92 3.98,25.69 11.94,35.29 9.76,11.73 24.78,17.62 45.08,17.62 11.57,0 23.44,-2.17 35.58,-6.49l0 0z"/>
   </g>
  </g>
  <path fill="white" fill-rule="nonzero" d="M365.44 171.77l7.88 0c15.65,0 27.91,-3.78 36.74,-11.38 8.83,-7.6 13.25,-18.05 13.25,-31.44 0,-13.39 -4.42,-23.88 -13.25,-31.55 -8.83,-7.67 -21.09,-11.48 -36.74,-11.48l-7.88 0 0 85.85zm-35.4 32.22l0 -150.08 39.85 0c28.02,0 49.99,6.68 65.86,20.07 15.86,13.39 23.81,31.72 23.81,54.97 0,13.92 -3.15,26.32 -9.43,37.09 -6.26,10.81 -15.48,19.68 -27.63,26.68 -6.93,3.99 -14.42,6.85 -22.54,8.62 -8.09,1.76 -18.13,2.65 -30.07,2.65l-39.85 0zm194.34 -75.04c0,13.03 3.82,23.99 11.45,32.78 7.63,8.8 17.03,13.22 28.19,13.22 11.23,0 20.67,-4.38 28.26,-13.15 7.6,-8.79 11.38,-19.75 11.38,-32.85 0,-13.18 -3.78,-24.2 -11.38,-33 -7.59,-8.8 -17.03,-13.21 -28.26,-13.21 -11.16,0 -20.56,4.41 -28.19,13.21 -7.63,8.8 -11.45,19.82 -11.45,33zm-36.88 0c0,-11.13 1.9,-21.52 5.76,-31.2 3.81,-9.71 9.46,-18.37 16.92,-26.04 7.03,-7.31 15.23,-12.93 24.55,-16.81 9.29,-3.92 19.08,-5.87 29.29,-5.87 10.21,0 20,1.98 29.36,5.9 9.36,3.92 17.66,9.61 24.91,17 7.31,7.38 12.86,15.89 16.6,25.61 3.78,9.68 5.65,20.17 5.65,31.41 0,9.4 -1.3,18.23 -3.92,26.49 -2.65,8.27 -6.53,15.83 -11.73,22.69 -7.31,9.71 -16.28,17.27 -26.95,22.64 -10.67,5.41 -21.98,8.09 -33.92,8.09 -10.14,0 -19.86,-1.98 -29.15,-5.9 -9.29,-3.92 -17.52,-9.61 -24.69,-16.99 -7.46,-7.63 -13.11,-16.29 -16.92,-25.93 -3.86,-9.61 -5.76,-20 -5.76,-31.09zm301.14 -27.56c-6.5,-6.68 -13.08,-11.62 -19.72,-14.87 -6.67,-3.22 -13.67,-4.84 -20.98,-4.84 -12.69,0 -23.07,4.38 -31.13,13.14 -8.09,8.76 -12.12,20.03 -12.12,33.74 0,13.74 4,24.87 12.02,33.39 7.98,8.51 18.4,12.78 31.26,12.78 7.6,0 15.16,-1.59 22.72,-4.77 7.56,-3.17 15.08,-7.94 22.61,-14.3l-2.3 39.85c-6.43,4.34 -13.42,7.66 -21.05,9.93 -7.63,2.29 -15.55,3.42 -23.78,3.42 -8.83,0 -17.28,-1.38 -25.4,-4.13 -8.09,-2.76 -15.58,-6.86 -22.4,-12.23 -9.68,-7.59 -17.06,-16.85 -22.22,-27.8 -5.12,-10.92 -7.7,-22.86 -7.7,-35.75 0,-11.13 1.9,-21.55 5.68,-31.27 3.82,-9.71 9.33,-18.33 16.57,-25.79 7.32,-7.45 15.76,-13.14 25.37,-17.13 9.57,-3.96 19.68,-5.94 30.31,-5.94 8.45,0 16.47,1.17 24.13,3.53 7.67,2.34 14.98,5.9 21.94,10.67l-3.81 38.37z"/>
 </g>
</svg>
