<?xml version="1.0" encoding="UTF-8"?>
<!DOCTYPE svg PUBLIC "-//W3C//DTD SVG 1.1//EN" "http://www.w3.org/Graphics/SVG/1.1/DTD/svg11.dtd">
<!-- Creator: CorelDRAW 2017 -->
<svg xmlns="http://www.w3.org/2000/svg" xml:space="preserve" width="100%" height="100%" version="1.1" style="shape-rendering:geometricPrecision; text-rendering:geometricPrecision; image-rendering:optimizeQuality; fill-rule:evenodd; clip-rule:evenodd"
viewBox="0 0 3631.37 2804.05"
 xmlns:xlink="http://www.w3.org/1999/xlink">
 <defs>
  <style type="text/css">
   <![CDATA[
    .fil0 {fill:black;fill-rule:nonzero}
    .fil1 {fill:red;fill-rule:nonzero}
    .fil2 {fill:red;fill-rule:nonzero}
   ]]>
  </style>
 </defs>
 <g id="Layer_x0020_1">
  <metadata id="CorelCorpID_0Corel-Layer"/>
  <path class="fil0" d="M898.33 511.81c-3.39,-5.93 -5.08,-14.18 -5.08,-24.77 0,-10.58 0.85,-22.64 2.54,-36.19l-10.16 0 -59.69 342.9 -241.3 0 139.7 -793.75 227.33 0 129.54 281.94c2.54,5.93 3.81,14.18 3.81,24.76 0,10.59 -0.85,22.65 -2.54,36.2l10.16 0 60.96 -342.9 241.3 0 -139.7 793.75 -227.33 0 -129.54 -281.94z"/>
  <path class="fil0" d="M1954.97 793.75l-254 0 334.01 -793.75 373.38 0 55.88 793.75 -255.27 0 -5.08 -125.73 -199.39 0 -49.53 125.73zm229.87 -327.66l0 -222.25 -12.7 0 -88.9 222.25 101.6 0z"/>
  <path class="fil0" d="M3205.92 595.63c29.63,0 50.8,-4.02 63.5,-12.07 12.7,-8.04 21.59,-26.45 26.67,-55.24l93.98 -528.32 241.3 0 -78.74 445.77c-12.7,71.97 -27.3,129.96 -43.81,173.99 -16.51,44.03 -39.59,81.28 -69.22,111.76 -29.63,30.48 -66.25,51.65 -109.85,63.5 -43.61,11.85 -98.85,17.78 -165.74,17.78 -102.45,0 -174.2,-15.45 -215.26,-46.36 -41.07,-30.9 -61.6,-84.03 -61.6,-159.38 0,-41.49 5.93,-95.25 17.78,-161.29l78.74 -445.77 241.3 0 -105.41 595.63 86.36 0z"/>
  <path class="fil0" d="M1063.95 1649.23l-164.9 0 -34.57 200.8 -252.67 0 146.28 -831.15 398.95 0c150.71,0 226.07,70.04 226.07,210.12 0,66.49 -9.3,126.55 -27.92,180.19 -18.62,53.64 -39.23,96.19 -61.83,127.66 -22.61,31.48 -53.65,58.07 -93.09,79.79 -39.46,21.73 -84.89,32.59 -136.32,32.59zm-69.15 -212.78c30.15,0 52.97,-3.33 68.49,-9.98 15.51,-6.65 25.49,-21.93 29.92,-45.87 11.53,-65.6 17.29,-101.51 17.29,-107.72 0,-16.85 -6.65,-27.92 -19.95,-33.24 -13.3,-5.32 -33.25,-7.98 -59.84,-7.98l-58.52 0 -35.9 204.79 58.51 0z"/>
  <path class="fil0" d="M2232.88 1018.88c151.6,0 227.4,67.82 227.4,203.47 0,55.85 -8.41,109.04 -25.26,159.58 -31.03,95.75 -79.79,159.58 -146.28,191.5l87.76 276.6 -277.93 0 -61.17 -247.35 -54.53 0 -42.55 247.35 -252.67 0 146.28 -831.15 398.95 0zm-155.59 379.01c30.15,0 52.97,-3.33 68.49,-9.98 15.51,-6.65 26.15,-25.71 31.92,-57.19 5.76,-31.46 8.64,-50.75 8.64,-57.84 0,-17.73 -6.87,-29.03 -20.61,-33.91 -13.75,-4.87 -36.14,-7.31 -67.16,-7.31l-50.54 0 -29.25 166.23 58.51 0z"/>
  <path class="fil0" d="M3158.45 1642.58c34.58,0 60.28,-4.21 77.13,-12.64 16.85,-8.42 27.93,-27.7 33.25,-57.84l61.17 -345.76 -106.39 0c-33.68,0 -58.95,4.21 -75.8,12.63 -16.85,8.43 -27.92,27.7 -33.24,57.85l-61.18 345.76 105.06 0zm109.05 -643.65c112.59,0 192.82,21.94 240.7,65.83 47.87,43.88 71.81,111.48 71.81,202.8 0,91.32 -14.41,186.84 -43.21,286.58 -28.82,99.74 -74.48,177.32 -136.98,232.72 -62.5,55.41 -153.82,83.12 -273.95,83.12 -120.13,0 -204.13,-21.95 -252,-65.83 -47.88,-43.89 -71.82,-111.48 -71.82,-202.8 0,-43.44 6.21,-100.85 18.62,-172.22 12.41,-71.36 28.82,-132.98 49.21,-184.84 20.38,-51.87 47.87,-96.85 82.45,-134.98 66.49,-73.58 171.54,-110.38 315.17,-110.38z"/>
  <path class="fil1" d="M2870.64 732.79c11.01,23.71 24.55,42.76 40.64,57.15l-537.21 -57.15 496.57 0zm-21.59 -123.19c0,20.32 1.27,39.37 3.81,57.15l-537.21 -57.15 533.4 0zm8.89 -121.92c-3.39,27.94 -5.5,46.99 -6.35,57.15l-537.21 -57.15 543.56 0zm-482.6 -365.76l547.37 0 -10.16 57.15 -537.21 -57.15zm558.8 -64.77l-537.21 -57.15 547.37 0 -10.16 57.15zm-64.77 365.76l-537.21 -57.15 547.37 0 -10.16 57.15zm21.59 -121.92l-538.48 -57.15 548.64 0 -10.16 57.15z"/>
  <polygon class="fil0" points="1970.21,54.61 1993.07,0 1452.05,0 "/>
  <path class="fil1" d="M1660.33 788.67l-520.7 -55.88 544.83 0 -24.13 55.88zm52.07 -123.19l-520.7 -55.88 544.83 0 -24.13 55.88zm52.07 -121.92l-520.7 -55.88 543.56 0 -22.86 55.88zm50.8 -121.92l-519.43 -55.88 543.56 0 -24.13 55.88zm52.07 -121.92l-519.43 -55.88 542.29 0 -22.86 55.88zm50.8 -123.19l-518.16 -54.61 541.02 0 -22.86 54.61zm52.07 -121.92l-518.16 -54.61 541.02 0 -22.86 54.61z"/>
  <path class="fil2" d="M674.81 57.15l-537.21 -57.15 547.37 0 -10.16 57.15zm-106.68 609.6l-538.48 -57.15 548.64 0 -10.16 57.15zm86.36 -487.68l-538.48 -57.15 547.37 0 -8.89 57.15zm-21.59 121.92l-538.48 -57.15 548.64 0 -10.16 57.15zm-21.59 121.92l-538.48 -57.15 548.64 0 -10.16 57.15zm-21.59 121.92l-538.48 -57.15 548.64 0 -10.16 57.15zm-43.18 245.11l-538.48 -57.15 548.64 0 -10.16 57.15z"/>
  <path class="fil2" d="M2998.87 1018.88c-25.71,15.96 -45.65,30.59 -59.84,43.89l-406.93 -43.89 466.77 0zm-194.16 767.32c11.53,20.39 24.83,36.8 39.9,49.2l-460.13 -49.2 420.23 0zm67.83 -639.65c-12.41,23.04 -21.28,40.78 -26.6,53.19l-497.36 -53.19 523.96 0zm-107.72 510.66c3.55,24.82 6.65,43.44 9.31,55.85l-517.31 -55.85 508 0zm53.19 -383l-15.96 54.53 -515.97 -54.53 531.93 0zm-50.53 255.33c-2.66,20.39 -3.99,39.01 -3.99,55.85l-523.96 -55.85 527.95 0zm14.63 -101.07c-1.77,7.09 -3.55,16.85 -5.32,29.26l-522.63 -55.85 531.94 0 -3.99 26.59z"/>
  <path class="fil2" d="M1714.24 1461.72l-562.52 -59.84 573.16 0 -10.64 59.84zm67.83 -382.99l-562.53 -59.85 573.17 0 -10.64 59.85zm-111.71 638.32l-563.85 -59.84 574.49 0 -10.64 59.84zm89.1 -510.66l-562.52 -59.84 573.16 0 -10.64 59.84zm-22.61 127.66l-562.52 -59.84 573.16 0 -10.64 59.84zm-43.88 255.33l-563.85 -59.84 574.49 0 -10.64 59.84zm-45.22 256.66l-563.85 -59.84 574.49 0 -10.64 59.84z"/>
  <path class="fil2" d="M638.4 1461.72l-562.52 -59.84 573.16 0 -10.64 59.84zm67.83 -382.99l-562.53 -59.85 573.16 0 -10.63 59.85zm-111.71 638.32l-563.85 -59.84 574.49 0 -10.64 59.84zm89.1 -510.66l-562.52 -59.84 573.16 0 -10.64 59.84zm-22.61 127.66l-562.52 -59.84 573.16 0 -10.64 59.84zm-43.88 255.33l-563.86 -59.84 574.5 0 -10.64 59.84zm-45.22 256.66l-563.85 -59.84 574.49 0 -10.64 59.84z"/>
  <g id="_2179611010272">
   <path class="fil0" d="M3196.92 2400.46c25.77,0 45.29,-2.85 58.55,-8.53 13.26,-5.69 22.36,-21.98 27.29,-48.89 4.92,-26.9 7.39,-43.38 7.39,-49.45 0,-15.16 -5.88,-24.83 -17.63,-28.99 -11.74,-4.17 -30.88,-6.25 -57.41,-6.25l-43.2 0 -25.01 142.11 50.02 0zm133.02 -324.02c129.61,0 194.4,57.99 194.4,173.95 0,47.75 -7.2,93.23 -21.6,136.43 -26.52,81.85 -68.2,136.42 -125.05,163.7l75.04 236.48 -237.62 0 -52.29 -211.47 -46.62 0 -36.38 211.47 -216 0 125.05 -710.56 341.07 0z"/>
   <polygon class="fil0" points="2245.35,2787 2370.4,2076.44 2586.42,2076.44 2461.36,2787 "/>
   <polygon class="fil0" points="1978.18,2258.35 1821.29,2258.35 1729.2,2787 1513.19,2787 1605.28,2258.35 1449.52,2258.35 1482.49,2076.44 2011.14,2076.44 "/>
   <path class="fil0" d="M494.54 2586.9c63.67,17.44 121.85,26.15 174.52,26.15 52.68,0 95.69,-2.27 129.04,-6.82l9.09 -56.84 -94.36 -9.1c-72.01,-6.82 -122.97,-23.12 -152.91,-48.88 -29.94,-25.77 -44.91,-62.15 -44.91,-109.14 0,-20.46 2.27,-43.2 6.82,-68.21 17.43,-97.02 49.26,-163.72 95.5,-200.1 46.23,-36.38 117.29,-54.57 213.16,-54.57 95.88,0 180.59,9.47 254.1,28.42l-59.11 181.91c-65.94,-11.37 -118.81,-17.06 -158.61,-17.06 -39.79,0 -74.08,1.9 -102.88,5.69l-9.1 55.71 76.18 7.95c77.31,8.34 132.26,26.72 164.85,55.14 32.59,28.42 48.87,66.51 48.87,114.26 0,48.5 -10.22,98.53 -30.68,150.06 -11.37,26.53 -23.31,48.71 -35.82,66.52 -12.51,17.81 -28.42,32.97 -47.75,45.47 -19.33,12.51 -36.94,21.98 -52.86,28.43 -15.92,6.43 -36.38,11.17 -61.39,14.2 -34.87,5.31 -78.07,7.96 -129.61,7.96 -93.98,0 -179.25,-9.85 -255.79,-29.56l63.65 -187.59z"/>
   <g>
    <polygon class="fil2" points="2886.56,2455.03 2405.65,2403.87 2895.65,2403.87 "/>
    <polygon class="fil2" points="2944.53,2127.6 2463.63,2076.44 2953.63,2076.44 "/>
    <polygon class="fil1" points="2849.04,2673.31 2366.99,2622.15 2858.14,2622.15 "/>
    <polygon class="fil2" points="2925.2,2236.75 2444.3,2185.59 2934.3,2185.59 "/>
    <polygon class="fil2" points="2905.89,2345.89 2424.98,2294.73 2914.98,2294.73 "/>
    <polygon class="fil2" points="2868.37,2564.17 2386.32,2513 2877.46,2513 "/>
    <polygon class="fil2" points="2829.71,2783.59 2347.67,2732.43 2838.81,2732.43 "/>
   </g>
   <g>
    <polygon class="fil2" points="2326.07,2127.6 1845.17,2076.44 2335.16,2076.44 "/>
    <polygon class="fil2" points="2230.58,2673.31 1748.53,2622.15 2239.67,2622.15 "/>
    <polygon class="fil2" points="2307.88,2236.75 1825.84,2185.59 2315.83,2185.59 "/>
    <polygon class="fil2" points="2288.56,2345.89 1806.51,2294.73 2297.65,2294.73 "/>
    <polygon class="fil2" points="2269.23,2455.03 1787.18,2403.87 2278.32,2403.87 "/>
    <polygon class="fil2" points="2249.9,2564.17 1767.86,2513 2259,2513 "/>
    <polygon class="fil2" points="2211.25,2783.59 1729.2,2732.43 2220.34,2732.43 "/>
   </g>
   <g>
    <polygon class="fil2" points="1437.02,2127.6 956.12,2076.44 1446.11,2076.44 "/>
    <polygon class="fil2" points="1418.84,2236.75 936.79,2185.59 1426.78,2185.59 "/>
    <polygon class="fil2" points="1497.27,2673.31 1015.24,2622.15 1506.37,2622.15 "/>
    <polygon class="fil2" points="1555.25,2345.89 1073.22,2294.73 1564.35,2294.73 "/>
    <polygon class="fil2" points="1535.93,2455.03 1053.89,2403.87 1545.02,2403.87 "/>
    <polygon class="fil2" points="1516.6,2564.17 1034.56,2513 1525.7,2513 "/>
    <polygon class="fil2" points="1477.95,2783.59 995.91,2732.43 1487.04,2732.43 "/>
   </g>
   <g>
    <polygon class="fil2" points="1.14,2732.43 409.28,2732.43 392.23,2782.45 "/>
    <polygon class="fil2" points="20.46,2622.15 445.67,2622.15 428.61,2672.17 "/>
    <path class="fil2" d="M605.96 2076.44c-17.43,11.37 -34.11,26.91 -50.02,46.62l-438.84 -46.62 488.86 0z"/>
    <path class="fil2" d="M641.2 2564.17l-601.41 -51.17 490 0c25.01,24.26 62.15,41.31 111.41,51.17z"/>
    <path class="fil2" d="M482.04 2403.87c1.51,20.47 4.55,37.52 9.09,51.16l-480.9 -51.16 471.81 0z"/>
    <polygon class="fil2" points="520.69,2185.59 503.64,2235.61 31.83,2185.59 "/>
    <path class="fil2" d="M482.04 2345.89l-482.04 -51.16 490 0c-3.79,15.16 -6.45,32.21 -7.96,51.16z"/>
   </g>
  </g>
 </g>
</svg>
