<?xml version="1.0" encoding="UTF-8"?>
<svg xmlns="http://www.w3.org/2000/svg" xml:space="preserve" width="100%" height="100%" version="1.1" viewBox="0 0 17991.66 16368.88">
 <g>
  <path fill="#419ED8" d="M5362.22 10759.72c0,647.38 -90.94,1357.44 341.21,1704.9 440.09,353.83 1336.09,-71.92 1967.33,854.89 348.58,511.8 231.46,717.01 231.46,1109.09 0,537.16 -85.76,1357.35 153.99,1680.46 127.09,171.3 289.2,237.19 482.43,259.82l704.13 0c270.9,0 502.35,-205.48 587.56,-400.23 75.32,-172.17 55.15,-1543.86 83.71,-1927.11 46,-617.21 552.57,-1172.74 1156.78,-1347.94 424.19,-123.01 1417.51,190.74 1417.51,-1122.5 0,-1135.53 211.67,-917.22 -846.67,-917.22 -1767.98,0 -650.54,1323.99 -1667.98,2177.3 -961.89,806.72 -2254.03,317.92 -2559.59,-771.95 -145.59,-519.28 182.08,-1405.35 -1205.2,-1405.35 -498.33,0 -846.67,-75.82 -846.67,105.84z"/>
  <path fill="#419ED8" d="M5362.22 5997.22c0,1805.21 1026.73,811.23 2006.48,1591.85 865.75,689.8 366.15,1385.63 758.8,1922.31 242.9,332.01 1783.76,568.63 1786.83,-620.1 1.33,-513.06 136.25,-935.66 512.03,-1251.87 604.22,-508.43 821.05,-333.48 1307.91,-420.69 916.34,-164.15 754.06,-1043.34 754.06,-1962.33 -764.54,0 -1585.62,-140.37 -1871.77,421.28 -169.84,333.37 -78.08,614.98 -180.05,984.11 -157.28,569.35 -767.82,1134.6 -1299.57,1134.6 -498.12,0 -858.62,-5.29 -1244.36,-378.41 -780.54,-755 -372.46,-1221.81 -653.71,-1745.18 -298.17,-554.89 -1121.62,-416.4 -1876.65,-416.4l0 740.83z"/>
  <path fill="#419ED8" d="M5362.22 740.83c0,1511.27 852.43,1120.71 1405.35,1275.76 727,203.86 1151.81,756.22 1168.96,1547.43 19.82,913.86 520.16,951.53 1129.86,951.53 516.33,0 846.59,-356.96 847.94,-880.66 0.94,-360.23 17.51,-498.1 139.17,-742.77 46.8,-94.12 83.96,-185.24 151.83,-271.51 834.03,-1060.18 1602.05,-315.43 2093.44,-975.72 265.35,-356.55 189.56,-1123.75 189.56,-1644.89l-1115.08 0c-336.68,35.09 -613.56,140.4 -756.69,421.29 -266.12,522.26 111.18,992.52 -658.62,1740.27 -656.99,638.18 -2071.22,553.52 -2524.83,-704.67 -122.56,-339.95 83.33,-1456.89 -942,-1456.89l-1128.89 0 0 740.83z"/>
  <path fill="#419ED8" d="M35.28 8890c0,1243.24 1055.35,919.17 1517.64,1092.91 222.5,83.62 381.57,184.05 553.81,328.13 114.77,96.01 309.99,358.8 374.08,507.87 250.77,583.27 -10.36,1047.43 360.45,1403.44 342.56,328.9 1697.19,462.01 1745.49,-615.33 17.16,-382.69 -20.86,-472.46 116.3,-765.64 185.19,-395.88 519.68,-721.46 936.21,-862.95 543.15,-184.51 1522.13,207.88 1522.13,-1229.55l0 -811.38c-1023.01,0 -1986.75,-222.82 -2011.26,987.35 -5.35,264.19 -11.96,304.78 -82.33,517.39 -164.56,497.16 -728.86,1035.25 -1363.63,1035.25 -438.03,0 -703.33,-32.47 -1099.59,-346.79 -201.04,-159.47 -401.61,-437.65 -493.08,-706.37 -111.61,-327.88 25.47,-1486.83 -876.78,-1486.83l-1199.44 0 0 952.5z"/>
  <path fill="#419ED8" d="M-0 3810c0,496.22 398.61,775.14 883.36,809.97 496.19,35.66 762.47,6.25 1225.11,468.23 452.92,452.27 396.13,795.32 455.92,1237.41 43.51,321.74 36.79,436.45 229.44,617.22 316.64,297.12 1151.47,298.98 1467.76,-0.13 179,-169.28 220.63,-309.38 265.25,-616.7 55.93,-385.27 -20.91,-814.12 463.61,-1265 156.14,-145.3 316.35,-245.94 512.61,-334.05 483.49,-217.05 1587.77,108.64 1587.77,-1022.79l0 -1058.33c-820.78,0 -1600.39,-149.81 -1880.79,447.55 -135.56,288.81 -69.65,680.19 -180.98,1018.46 -164.85,500.91 -724.22,1073.99 -1360.17,1073.99 -359.08,0 -403.38,23.29 -762.26,-119.68 -379.89,-151.34 -716.14,-549.05 -856.84,-942.33 -112.85,-315.45 -34.42,-684.1 -168.08,-996.08 -123.51,-288.26 -414.32,-481.91 -717.54,-481.91l-1164.17 0 0 1164.17z"/>
  <path fill="#419ED8" d="M10900.83 3704.16c0,253.35 91.72,490.28 219.08,627.59 532.34,573.92 1158.99,-38.17 1911.08,770.03 26.54,28.52 24.48,27.92 49.95,55.88 290.69,319.22 397.26,647.83 394.15,1122.8 -7.59,1158.49 1370.44,961.43 1714.8,654.44 127.83,-113.96 236.24,-388.44 257.94,-588.74 42.17,-389.4 -64.28,-759.04 435.36,-1257.96 153.44,-153.22 285.47,-251.02 496.8,-349.88 482.01,-225.49 905.28,18.48 1351.52,-341.81 162.55,-131.24 232.69,-369.53 260.15,-645.51l0 -1105.17c-492.59,0 -1276.36,-76.88 -1594.26,134.35 -598.56,397.73 -165.78,1023.45 -643.05,1720.56 -44.17,64.51 -80.06,96.86 -125.8,156.42 -58.77,76.53 -69.16,95.24 -155.66,161.84 -979.37,754.09 -2159.96,291.17 -2501.13,-681.04 -150.6,-429.15 62.53,-1492.13 -942.04,-1492.13l-1128.89 0 0 1058.33z"/>
  <path fill="#419ED8" d="M10900.83 8995.83c0,921.02 777.04,883.41 1234.08,917.86 491.05,37.03 1010.46,465.15 1211.04,940.91 326.26,773.91 -223.3,1598.45 1188.49,1598.45 1117.13,0 829.82,-1091.28 1002.15,-1537.85 156.62,-405.86 435.69,-687.68 819.73,-873.6 294.94,-142.78 339.16,-103.26 716.4,-130.27 255.05,-18.26 479.65,-78.1 629.04,-217.62 149.36,-139.5 289.9,-315.05 289.9,-592.05l0 -1164.16c-876.79,0 -1585.33,-152.93 -1870.63,457.7 -195.08,417.52 63.69,1141.36 -673.6,1725.29 -895.93,709.57 -2102.78,320.38 -2465.99,-665.27 -179.45,-486.98 -43.68,-642.89 -179.33,-1020.11 -89.11,-247.77 -366.41,-497.61 -701.84,-497.61l-1199.44 0 0 1058.33z"/>
  <path fill="#419ED8" d="M2610.55 8890c0,431.15 184.5,816.82 567.43,949.51 597.17,206.94 1408.13,-10.96 1408.13,-808.4 0,-606.05 -337.65,-1093.61 -846.67,-1093.61 -574.39,0 -1128.89,62.78 -1128.89,952.5z"/>
  <path fill="#419ED8" d="M3527.78 4621.39c280.43,0 574.58,-91.15 732.35,-220.15 183.36,-149.9 254.25,-429.16 282.81,-707.49 51.58,-502.66 -405.6,-1047.92 -874.05,-1047.92l-246.95 0c-1167.23,0 -1217.24,1975.56 105.84,1975.56z"/>
  <path fill="#419ED8" d="M7937.5 11641.66c0,1206.91 1315.91,1107.11 1649.37,837.98 443.1,-357.62 438.93,-1141.71 36.21,-1535.78 -551.24,-539.39 -1685.58,-356.88 -1685.58,697.8z"/>
  <path fill="#419ED8" d="M13476.11 3527.78c0,641.94 237.69,1093.61 987.77,1093.61 1445.47,0 1177.22,-1975.56 70.56,-1975.56 -563.87,0 -1058.33,147.56 -1058.33,881.95z"/>
  <path fill="#419ED8" d="M13476.11 8748.88c0,329.6 10.76,685.79 276.03,923.41 376.61,337.37 1699.52,477.68 1699.52,-747.02 0,-271.15 -116,-520.7 -240.3,-676.92 -425.17,-534.34 -1735.25,-431.68 -1735.25,500.53z"/>
  <path fill="#419ED8" d="M7937.5 6244.16c0,1329.4 1975.55,1284.23 1975.55,141.11 0,-354.03 -21.15,-583.4 -272.54,-856.35 -389.83,-423.26 -1703.01,-496.41 -1703.01,715.24z"/>
  <path fill="#419ED8" d="M7937.5 987.78c0,1311.19 1975.55,1299.33 1975.55,141.11 0,-310.19 -9.44,-597.09 -271.56,-857.33 -146.78,-145.74 -374.15,-243.67 -615.47,-271.56l-278.97 0c-422.19,50.5 -809.55,340.07 -809.55,987.78z"/>
  <path fill="#419ED8" d="M10900.83 3704.16c0,253.35 91.72,490.28 219.08,627.59 532.34,573.92 1158.99,-38.17 1911.08,770.03 26.54,28.52 24.48,27.92 49.95,55.88 290.69,319.22 397.26,647.83 394.15,1122.8 -7.59,1158.49 1370.44,961.43 1714.8,654.44 127.83,-113.96 236.24,-388.44 257.94,-588.74 42.17,-389.4 -64.28,-759.04 435.36,-1257.96 153.44,-153.22 285.47,-251.02 496.8,-349.88 482.01,-225.49 905.28,18.48 1351.52,-341.81 162.55,-131.24 232.69,-369.53 260.15,-645.51l0 -1105.17c-492.59,0 -1276.36,-76.88 -1594.26,134.35 -598.56,397.73 -165.78,1023.45 -643.05,1720.56 -44.17,64.51 -80.06,96.86 -125.8,156.42 -58.77,76.53 -69.16,95.24 -155.66,161.84 -979.37,754.09 -2159.96,291.17 -2501.13,-681.04 -150.6,-429.15 62.53,-1492.13 -942.04,-1492.13l-1128.89 0 0 1058.33z"/>
 </g>
</svg>
