<?xml version="1.0" encoding="UTF-8"?>
<svg xmlns="http://www.w3.org/2000/svg" viewBox="0 0 9200.11 7222.55">
 <g>
  <g>
   <path fill="#FFA071" d="M4547.6 5279.42l0 1943.13 4244.83 0c224.21,0 407.68,-183.47 407.68,-407.67l0 -1127.78c0,-224.21 -183.46,-407.68 -407.68,-407.68l-4244.83 0z"/>
   <path fill="#71C285" d="M4547.6 7220.02l-4139.92 0c-224.22,0 -407.68,-183.46 -407.68,-407.68l0 -1127.78c0,-224.22 183.46,-407.67 407.68,-407.67l4139.92 0 0 1943.13z"/>
   <path fill="#4C8056" fill-rule="nonzero" d="M8120.91 5732.43l0 453.04 225.89 2.78c91.29,0 158.13,-8.35 200.53,-25.06 42.39,-16.71 75.81,-43.33 99.95,-80.46 24.13,-37.13 36.21,-78.91 36.21,-124.71 0,-44.55 -12.08,-85.71 -36.21,-122.84 -24.14,-37.14 -56.32,-63.45 -95.93,-79.23 -39.61,-15.78 -104.28,-23.52 -194.65,-23.52l-235.79 0zm-133.69 -129.96l265.82 0c152.25,0 255.3,6.49 308.52,19.8 76.12,18.88 138.32,57.25 186.6,115.73 48.58,58.18 72.72,131.52 72.72,219.72 0,88.81 -23.51,161.84 -70.86,219.71 -47.04,57.55 -112.02,96.23 -194.65,116.35 -60.65,14.54 -173.6,21.65 -339.16,21.65l-95.3 0 0 620.15 -133.69 0 0 -1333.11zm-946.98 279.74l-229.3 485.22 457.68 0 -228.38 -485.22zm16.71 -279.74l621.99 1333.11 -143.27 0 -208.26 -438.18 -577.74 0 -207.02 438.18 -148.54 0 629.42 -1333.11 33.42 0zm-2412.53 1333.11l184.74 -1333.11 27.54 0 542.46 1093.59 539.06 -1093.59 20.11 0 191.86 1333.11 -129.03 0 -133.69 -954.35 -472.22 954.35 -34.96 0 -476.87 -961.77 -127.8 961.77 -131.2 0z"/>
   <path fill="#AF8066" fill-rule="nonzero" d="M3699.41 5602.47l718.55 0 -30.64 235.79 -468.51 0 -37.75 276.66 470.36 0 -30.32 233.94 -471.91 0 -48.59 354.63 474.7 0 -30.33 232.09 -727.51 0 181.95 -1333.11zm-1069.4 0l718.55 0 -30.64 235.79 -468.51 0 -37.75 276.66 470.37 0 -30.33 233.94 -471.91 0 -48.59 354.63 474.7 0 -30.33 232.09 -727.51 0 181.95 -1333.11zm-971.6 532.87c135.23,-0.62 223.42,-14.55 264.27,-42.09 40.85,-27.23 61.27,-68.39 61.27,-123.16 0,-31.25 -8.05,-57.55 -24.45,-78.6 -16.4,-21.04 -40.22,-35.89 -71.17,-44.25 -30.95,-8.35 -94.07,-12.69 -188.76,-12.69l-41.16 300.79zm-177.63 -532.87l231.16 0c142.66,0 243.23,12.38 301.41,37.13 72.41,30.95 127.18,73.65 164,128.42 36.83,54.78 55.4,119.76 55.4,194.64 0,92.53 -27.54,171.75 -82.31,237.97 -55.09,66.22 -138.02,112.64 -249.11,138.64l291.19 596.31 -259.01 0 -283.77 -581.15 -21.35 0 -79.22 581.15 -250.34 0 181.95 -1333.11zm-1073.1 0l813.23 0 -29.09 237.65 -276.34 0 -149.77 1095.46 -248.49 0 149.78 -1095.46 -290.27 0 30.95 -237.65z"/>
  </g>
  <polygon fill="#4C8056" points="6946.7,474.61 5999.98,474.61 2213.1,474.61 1651.38,1478.13 829.31,2943.98 4.09,4419.28 2213.1,4419.28 9155.72,4419.28 "/>
  <polygon fill="#71C285" points="9155.72,4419.28 3282.62,4419.28 4750.31,2975.53 5999.98,474.61 6946.7,474.61 "/>
  <path fill="#AF8066" d="M4.09 4419.28l9151.63 0 0 315.57c0,174.29 -141.3,315.57 -315.57,315.57l-8520.49 0.01c-174.29,0 -315.57,-141.28 -315.57,-315.57l0 -315.58z"/>
  <path fill="#E4C05C" d="M6157.77 474.61c-0.5,24.65 -6.43,48.91 -17.35,71 -416.56,833.11 -833.12,1666.23 -1249.69,2499.34l-1444.13 1374.33 -397.61 0 1559.31 -1514.75 1214.95 -2429.92 334.52 0z"/>
  <g>
   <path fill="#71C285" d="M4264.33 1184.65c0,217.85 -176.62,394.46 -394.46,394.46 -217.85,0 -394.47,-176.61 -394.47,-394.46 0,217.85 -176.62,394.46 -394.46,394.46 -217.86,0 -394.47,-176.61 -394.47,-394.46 0,-217.85 176.62,-394.47 394.47,-394.47 14.19,0 29.97,1.58 44.18,1.58 -171.9,-189.13 -162.64,-480.56 20.93,-658.39 183.57,-177.82 475.15,-177.82 658.72,0 183.57,177.83 192.83,469.26 20.93,658.39 14.2,0 29.98,-1.58 44.19,-1.58 217.79,0.07 394.35,176.63 394.44,394.47z"/>
   <path fill="#AF8066" d="M3475.4 2368.05c-41.85,0.02 -81.99,-16.6 -111.59,-46.21 -29.6,-29.6 -46.21,-69.72 -46.21,-111.59l0 -1025.61c0,-87.13 70.64,-157.79 157.8,-157.79 87.15,0 157.79,70.64 157.79,157.79l0 1025.61c0.02,41.85 -16.6,81.99 -46.2,111.59 -29.6,29.61 -69.75,46.23 -111.59,46.21z"/>
  </g>
  <g>
   <path fill="#71C285" d="M2213.1 2604.72c0,217.86 -176.62,394.47 -394.47,394.47 -217.84,0 -394.46,-176.62 -394.46,-394.47 0,217.86 -176.62,394.47 -394.47,394.47 -217.85,0 -394.46,-176.62 -394.46,-394.47 0,-217.85 176.61,-394.46 394.46,-394.46 14.2,0 29.98,1.57 44.19,1.57 -171.9,-189.13 -162.64,-480.55 20.93,-658.38 183.57,-177.83 475.15,-177.83 658.72,0 183.57,177.83 192.83,469.25 20.93,658.38 14.19,0 29.97,-1.57 44.19,-1.57 217.79,0.09 394.37,176.65 394.44,394.46z"/>
   <path fill="#AF8066" d="M1424.16 3788.12c-41.84,0.02 -81.99,-16.6 -111.59,-46.2 -29.59,-29.6 -46.2,-69.73 -46.2,-111.59l0 -1025.61c0,-87.14 70.64,-157.8 157.79,-157.8 87.14,0 157.8,70.64 157.8,157.8l0 1025.61c0.02,41.84 -16.6,81.99 -46.21,111.59 -29.6,29.6 -69.72,46.22 -111.59,46.2z"/>
  </g>
  <circle fill="#E31E24" cx="5022.42" cy="2430.99" r="154.04"/>
  <circle fill="#008DD2" cx="4237.83" cy="3468.28" r="154.04"/>
  <g>
   <path fill="#E31E24" fill-rule="nonzero" d="M3827.55 2300.9l1030.8 71.31 -5.18 74.82 -1030.8 -71.31 5.18 -74.82zm-26.66 183.71l31.12 -68.24 -52.97 31.54 7.76 -112.24 74.82 5.18 -7.76 112.23 -52.97 31.53zm0 0l52.97 -31.53 -3.74 53.98 -49.23 -22.45zm-286.67 -202.99l21.42 71.88 4.85 -70.06 291.52 132.93 -31.12 68.24 -291.52 -132.93 4.85 -70.06zm0 0l-4.85 70.06 -90.99 -41.49 95.84 -28.57zm355.17 -53l-74.82 -5.18 48.12 38.53 -307.05 91.53 -21.42 -71.88 307.04 -91.53 48.13 38.53zm0 0l-48.13 -38.53 51.86 -15.45 -3.73 53.98zm-45.18 109.64l-37.41 -2.59 7.77 -112.23 74.82 5.18 -7.77 112.23 -37.41 -2.59z"/>
  </g>
  <g>
   <path fill="#E31E24" fill-rule="nonzero" d="M4822.09 2550.26l-25.48 -70.54 70.54 -25.47 25.48 70.54 -70.54 25.47zm-141.08 50.94l-25.48 -70.54 70.54 -25.47 25.48 70.54 -70.54 25.47zm-141.08 50.94l-25.48 -70.54 70.54 -25.47 25.48 70.54 -70.54 25.47zm-141.08 50.94l-25.48 -70.54 70.54 -25.47 25.48 70.54 -70.54 25.47zm-141.08 50.94l-25.48 -70.54 70.54 -25.47 25.48 70.54 -70.54 25.47zm-141.08 50.94l-25.48 -70.54 70.54 -25.47 25.48 70.54 -70.54 25.47zm-141.08 50.94l-25.48 -70.54 70.54 -25.47 25.48 70.54 -70.54 25.47zm-141.08 50.94l-25.48 -70.54 70.54 -25.47 25.48 70.54 -70.54 25.47zm-141.08 50.94l-25.48 -70.54 70.54 -25.47 25.48 70.54 -70.54 25.47zm-141.08 50.95l-25.48 -70.54 70.54 -25.48 25.48 70.54 -70.54 25.48zm-141.08 50.96l-25.48 -70.54 70.54 -25.48 25.48 70.54 -70.54 25.48zm-141.08 50.96l-25.48 -70.54 70.54 -25.48 25.48 70.54 -70.54 25.48zm-141.08 50.96l-25.48 -70.54 70.54 -25.48 25.48 70.54 -70.54 25.48zm-141.08 50.96l-25.48 -70.54 70.54 -25.48 25.48 70.54 -70.54 25.48zm-141.08 50.96l-25.48 -70.54 70.54 -25.48 25.48 70.54 -70.54 25.48zm-141.08 50.96l-25.48 -70.54 70.54 -25.48 25.48 70.54 -70.54 25.48zm-141.08 50.96l-25.48 -70.54 70.54 -25.48 25.48 70.54 -70.54 25.48zm-141.08 50.96l-25.48 -70.54 70.54 -25.48 25.48 70.54 -70.54 25.48zm-141.08 50.96l-25.48 -70.54 70.54 -25.48 25.48 70.54 -70.54 25.48zm-141.08 50.96l-25.48 -70.54 70.54 -25.48 25.48 70.54 -70.54 25.48zm-141.08 50.96l-25.48 -70.54 70.54 -25.48 25.48 70.54 -70.54 25.48zm-141.1 50.96l-25.48 -70.54 70.55 -25.48 25.48 70.54 -70.55 25.48zm21.97 109.14l0.91 -75 -35.73 50.24 -38.21 -105.81 70.54 -25.48 38.22 105.81 -35.73 50.24zm0 0l35.73 -50.24 18.38 50.9 -54.11 -0.66zm-344.23 -69.96l48.62 57.1 -23.85 -66.05 320.37 3.91 -0.91 75 -320.38 -3.91 -23.85 -66.05zm0 0l23.85 66.05 -99.99 -1.22 76.14 -64.83zm303.53 -191.9l-70.54 25.48 59.58 15.81 -243.95 207.71 -48.62 -57.1 243.95 -207.71 59.58 15.81zm0 0l-59.58 -15.81 41.2 -35.08 18.38 50.89zm2.94 118.55l-35.27 12.74 -38.21 -105.81 70.54 -25.48 38.21 105.81 -35.27 12.74z"/>
  </g>
  <g>
   <path fill="#008DD2" fill-rule="nonzero" d="M3703.38 2544.36l498.8 764.72 -62.82 40.98 -498.8 -764.72 62.82 -40.98zm-162.64 89.48l73.2 -16.31 -57.09 -23.25 94.23 -61.46 40.97 62.82 -94.22 61.46 -57.09 -23.26zm0 0l57.09 23.26 -45.33 29.56 -11.76 -52.82zm-10.85 -351.1l-44.43 60.42 58.81 -38.36 69.67 312.73 -73.2 16.31 -69.67 -312.73 58.82 -38.37zm0 0l-58.82 38.37 -21.74 -97.61 80.56 59.24zm256.39 251.44l-40.97 -62.82 -1.73 61.62 -258.12 -189.82 44.43 -60.42 258.12 189.82 -1.73 61.62zm0 0l1.73 -61.62 43.59 32.05 -45.32 29.57zm-114.71 30.05l-20.49 -31.41 94.23 -61.46 40.97 62.82 -94.23 61.46 -20.48 -31.41z"/>
  </g>
  <g>
   <path fill="#008DD2" fill-rule="nonzero" d="M4013.63 3514.18l-8.66 -74.5 74.49 -8.65 8.66 74.5 -74.49 8.65zm-148.98 17.3l-8.66 -74.5 74.49 -8.65 8.66 74.5 -74.49 8.65zm-148.98 17.31l-8.66 -74.5 74.49 -8.66 8.66 74.5 -74.49 8.66zm-149 17.32l-8.66 -74.5 74.5 -8.66 8.66 74.5 -74.5 8.66zm-149 17.32l-8.66 -74.5 74.5 -8.66 8.66 74.5 -74.5 8.66zm-149 17.32l-8.66 -74.5 74.5 -8.66 8.66 74.5 -74.5 8.66zm-149 17.32l-8.66 -74.5 74.5 -8.66 8.66 74.5 -74.5 8.66zm-149 17.32l-8.66 -74.5 74.5 -8.66 8.66 74.5 -74.5 8.66zm-149 17.32l-8.66 -74.5 74.5 -8.66 8.66 74.5 -74.5 8.66zm-149 17.32l-8.66 -74.5 74.5 -8.66 8.66 74.5 -74.5 8.66zm-149 17.32l-8.66 -74.5 74.5 -8.66 8.66 74.5 -74.5 8.66zm-149 17.32l-8.66 -74.5 74.5 -8.66 8.66 74.5 -74.5 8.66zm-149 17.32l-8.66 -74.5 74.5 -8.66 8.66 74.5 -74.5 8.66zm-149 17.32l-8.66 -74.5 74.5 -8.66 8.66 74.5 -74.5 8.66zm-149 17.32l-8.66 -74.5 74.5 -8.66 8.66 74.5 -74.5 8.66zm-115.12 -62.12l31.96 -3.72 8.66 74.5 -31.96 3.72 -8.66 -74.5zm7.55 185.48l18.05 -72.8 -46.27 40.73 -12.99 -111.75 74.5 -8.66 12.98 111.75 -46.27 40.73zm0 0l46.27 -40.73 6.25 53.75 -52.52 -13.02zm-319.09 -146.87l34.27 66.71 -8.11 -69.75 310.98 77.11 -18.05 72.8 -310.98 -77.12 -8.11 -69.75zm0 0l8.11 69.75 -97.06 -24.06 88.95 -45.69zm339.39 -117.35l-74.5 8.65 54.38 29.03 -285 146.38 -34.27 -66.71 285.01 -146.38 54.38 29.03zm0 0l-54.38 -29.03 48.13 -24.72 6.25 53.75zm-24.26 116.07l-37.25 4.33 -12.99 -111.75 74.5 -8.65 12.99 111.74 -37.25 4.33z"/>
  </g>
  <text x="5515.84" y="2785.75"  fill="#2B2A29" font-weight="bold" font-size="535.81px" font-family="Arial">1</text>
  <text x="4789.2" y="3989.6"  fill="#2B2A29" font-weight="bold" font-size="535.81px" font-family="Arial">2</text>
  <text x="2829.74" y="2379.41"  fill="#71C285" font-weight="bold" font-size="535.81px" font-family="Arial">1</text>
  <text x="843.48" y="3966.75"  fill="#71C285" font-weight="bold" font-size="535.81px" font-family="Arial">2</text>
  <circle fill="none" stroke="#2B2A29" stroke-width="75" stroke-miterlimit="22.9256" cx="4931.46" cy="3796.71" r="416.72"/>
  <circle fill="none" stroke="#2B2A29" stroke-width="75" stroke-miterlimit="22.9256" cx="5672.29" cy="2592.86" r="416.72"/>
 </g>
</svg>
