<?xml version="1.0" encoding="UTF-8"?>
<svg xmlns="http://www.w3.org/2000/svg" fill-rule="evenodd" clip-rule="evenodd" viewBox="0 0 12100.28 8396.12">
 <g>
  <polygon fill="#8BFFFF" points="10477.51,8396.12 4810.4,2729.02 -0,7539.41 -0,8396.12 "/>
  <polygon fill="#CCCCFF" points="12100.28,0 7539.41,0 4810.4,2729.02 10477.51,8396.12 12100.28,8396.12 "/>
  <polygon fill="#FFB78B" points="7539.41,0 4810.4,2729.02 2081.39,0 "/>
  <polygon fill="#FF7F7F" points="-0,7539.41 4810.4,2729.02 2081.39,0 -0,0 "/>
  <path fill="none" stroke="black" stroke-width="75" stroke-miterlimit="22.9256" d="M3605.64 3939.49l-2414.34 0 0 -1210.48 0 -1203.86 2414.34 0m-2414.34 1203.86l2414.34 0"/>
  <path fill="none" stroke="black" stroke-width="75" stroke-miterlimit="22.9256" d="M4831.71 3957.51c656.75,0 1189.15,532.4 1189.15,1189.15 0,656.75 -532.4,1189.15 -1189.15,1189.15 -656.75,0 -1189.16,-532.4 -1189.16,-1189.15 0,-656.75 532.41,-1189.15 1189.16,-1189.15z"/>
  <path fill="none" stroke="black" stroke-width="75" stroke-miterlimit="22.9256" d="M7209.84 3957.51c656.75,0 1189.16,532.4 1189.16,1189.15 0,656.75 -532.41,1189.15 -1189.16,1189.15 -656.75,0 -1189.15,-532.4 -1189.15,-1189.15 0,-656.75 532.4,-1189.15 1189.15,-1189.15z"/>
  <path fill="none" stroke="black" stroke-width="75" stroke-miterlimit="22.9256" d="M6014.43 2729.01l2414.34 3.31m0 -1207.17l0 2414.34m-2414.34 0l0 -2414.34"/>
  <polyline fill="none" stroke="black" stroke-width="75" stroke-miterlimit="22.9256" points="8434.81,3933.45 9635.94,1531.19 10837.07,3933.45 "/>
  <polyline fill="none" stroke="black" stroke-width="75" stroke-linejoin="bevel" stroke-miterlimit="38.2016" points="8428.77,6353.83 8434.79,3942.49 9635.94,6335.75 10837.09,3942.49 10843.11,6353.83 "/>
  <line fill="none" stroke="black" stroke-width="75" stroke-miterlimit="22.9256" x1="9035.52" y1="2732.03" x2="10236.5" y2= "2732.03" />
  <polyline fill="none" stroke="black" stroke-width="75" stroke-miterlimit="22.9256" points="1191.3,3936.12 3605.64,3936.12 1191.3,6350.46 3605.64,6350.46 "/>
  <circle fill="black" stroke="#6666FF" stroke-width="200" stroke-miterlimit="22.9256" cx="4304.12" cy="5518.15" r="198.44"/>
  <circle fill="black" stroke="#6666FF" stroke-width="200" stroke-miterlimit="22.9256" cx="6658.92" cy="5518.15" r="198.44"/>
  <line fill="none" stroke="black" stroke-width="75" stroke-miterlimit="22.9256" x1="3605.64" y1="3936.12" x2="6014.43" y2= "1525.15" />
  <line fill="none" stroke="black" stroke-width="75" stroke-miterlimit="22.9256" x1="6014.43" y1="3939.49" x2="3605.64" y2= "1525.15" />
  <g>
   <g>
    <path fill="#1B2B4B" d="M1080.28 7166.63c-54.43,0 -106.08,-2.59 -141.66,41.81 -14.74,18.4 -18.01,34.62 -18.61,53.25l0 27.25c0,36.39 30.63,66.74 56.94,84.36 0,97.01 0,194.02 0,291.03 0,61.97 -2.8,83.56 25.25,120.25 47.88,62.62 113.9,50.57 191.96,50.57 32.05,0 58.02,-12.57 74.37,-28.97 9.23,-9.25 15.76,-16.19 21.98,-28.64 5.54,-11.12 12.13,-25.11 13.31,-39.4l202.46 0 -25.64 -31.31c-11.27,-15.33 -17.83,-34.07 -24.97,-34.07l-210.89 0c-18.72,0 17.82,97.01 -54.84,97.01l-84.35 0c-32.66,0 -63.27,-26.42 -63.27,-59.05l0 -362.73c0,-20.78 27.51,-16.02 35.85,-27.41 -18.9,0 -47.9,4.04 -62.71,-2.66 -32.17,-14.57 -30.08,-31.94 -30.08,-56.39 0,-15.4 22.13,-27.42 37.96,-27.42l86.47 0c8.44,0 10.48,4.35 18.98,6.33 0.21,-9.76 3.97,-16.74 6.32,-25.31l25.06 -76.17c6.21,-17.22 20.17,-52.95 34.45,-64.67 16.33,-13.41 237.24,-23.65 277.92,-23.65 122.09,0 193.66,2.76 313.84,17.25 30.47,3.67 29.8,1.32 43.48,24 15.55,25.76 28.53,67.18 38.35,96.62 5.56,16.65 11.65,35.16 15.56,51.93 4.67,-2.47 10.29,-6.33 16.87,-6.33l86.47 0c30.87,0 25.15,74.03 4.29,84.43 -10.67,5.33 -43.68,2.04 -59.12,2.04 5.23,7.13 15.12,5.32 20.69,13.05 7.72,10.72 -3.23,28.58 6.18,44.42 39.17,65.9 46.94,95.37 46.94,176.61 0,25.87 -7.73,58.89 -14.76,78.03 -4.67,12.72 -8.08,20.39 -14.06,32.34l-15.47 30.93c3.62,5.4 46.28,50.44 54.83,52.72 0.29,-12.88 5.98,-24.59 6.4,-40l-0.07 -143.47c0,-63.27 0,-126.54 0,-189.8 13.3,-3.55 29.44,-24.06 36.29,-35.41 15.09,-24.99 14.32,-51.34 14.32,-80.58 0,-35.28 -18.99,-62.58 -40.87,-77.23 -28.45,-19.06 -57.5,-15.56 -102.53,-15.56 -7.76,-33.31 -39.56,-115.54 -66.94,-139.74 -12.88,-11.38 -27.55,-19.55 -47.49,-22.1 -144.79,-18.53 -217.19,-19.5 -361.58,-19.53l-6.93 0c-46.3,0 -87.13,4.22 -130.71,6.37 -23.44,1.15 -130.27,11.01 -149.71,21.11 -4.24,2.2 -15.68,10.52 -19.6,14.14 -3.49,3.22 -4.8,5.71 -7.61,9.26 -23.79,30.14 -37.51,66.81 -50.11,103.84 -3.09,9.06 -5.64,19.21 -9.21,26.65z"/>
    <path fill="#1B2B4B" d="M1721.39 7731.81c-59.76,0 -106.63,-20.86 -139.73,-54.29 -69.54,-70.24 -78.53,-173.06 -23.52,-252.36 7.65,-11.03 12.29,-15.85 21.42,-24.97 57.67,-57.67 147.25,-73.37 220.59,-38.17 69.2,33.22 111.04,100.42 111.04,177.88 0,102.94 -87.03,191.91 -189.8,191.91zm381.71 149.73l0 1.02 -45.88 44.86 -181.88 -182.96c-20.47,13.71 -36.77,24.79 -62.03,34.99 -67.01,27.03 -147.77,23.57 -211.44,-8.27 -58.69,-29.35 -95.78,-71.72 -123.75,-129.31 -11.54,-23.78 -22.45,-69.63 -22.45,-104.08 0,-52.7 19.77,-110.12 47.59,-148.53 29.28,-40.41 59.44,-65.61 104.21,-87.7 22.99,-11.33 48.51,-17.68 74.98,-22.03 23.99,-3.94 62.62,-1.89 87.32,3.21 39.11,8.08 79.73,27.49 110.11,52.27 16.22,13.23 19.41,17.29 32.92,32.45 63.89,71.71 81.81,175.89 45.71,266.16 -11.81,29.54 -20.4,40.3 -37.3,64.97l181.89 182.95z"/>
    <path fill="#1B2B4B" d="M1162.53 7468.2l0 143.4c0,17.87 14.16,31.64 31.63,31.64l248.85 0c0,-11.12 -9.18,-37.83 -12.65,-52.73l-215.11 0 0 -94.9 215.11 0c0,-16.44 6.98,-42 12.65,-52.72l-227.76 0c-12.15,0 -26.73,-1.12 -35.75,2.21 -8.35,3.09 -16.97,11.87 -16.97,23.1z"/>
    <path fill="#1B2B4B" d="M1559 7495.61l204.56 0 0 94.9 -202.45 0c1.98,8.49 22.04,52.73 31.63,52.73l196.13 0c21.41,0 29.53,-16.68 29.53,-37.96l0 -128.65c0,-16.74 -7.15,-33.74 -23.2,-33.74l-208.78 0c-9.72,0 -26.49,41.51 -27.42,52.72z"/>
    <path fill="#1B2B4B" d="M1780.44 7820.38l0 4.22c11.17,0.25 17.14,3.98 29.44,4.29l103.42 -0.07 -43.78 -44.8c-13.43,9.17 -25.73,14.97 -40.63,21.55 -9.77,4.31 -35.98,14.54 -48.45,14.81z"/>
    <path fill="#1B2B4B" d="M1715.06 7702.29c16.16,0 24.67,-3.12 37.96,-4.22l0 -25.31 -126.53 0c9.92,14.82 60.78,29.53 88.57,29.53z"/>
   </g>
  </g>
 </g>
</svg>
