<svg xmlns="http://www.w3.org/2000/svg" fill-rule="evenodd" clip-rule="evenodd" image-rendering="optimizeQuality" shape-rendering="geometricPrecision" text-rendering="geometricPrecision" viewBox="0 0 17362.59 13168.58">
	<defs/>
	<g fill="#B1E30A">
		<path d="M10413.04 12200.57c0 62.53 48.44 98.14 114.51 98.14h1226.85c46.42 0 81.79-56.46 81.79-98.14 0-62.74-274.36-493.27-324.07-575.62l-257.5-429.55c-150.05-258.93-249.7-5.91-335.39 137.28-56.87 95.03-111.34 185.32-171.94 286.08-45.94 76.39-334.25 535.5-334.25 581.81zM9955.02 5723c57.78 21.75 949.01 666.71 996.69 718.28 57.44 22.97 252.59 169.38 290.68 213.91 62.24 34.89 109.72 75.16 168.49 114.51 72.36-38.29 276.97-252.12 294.45-327.16-82.1-94.45-96.17-54.59-147.22-130.88-63.87-11.52-95.72-48.74-143.78-85.13-53.74-40.7-102.52-69.14-139.46-104.95l-1087.79-791.39c-180.69-107.95-141.83-154.44-275.93 87.01-81.87 147.43-131.13 174.68-31.5 250.09 12.41 9.4 23.15 14.96 38.96 26.49l36.41 29.22zM5389.82 6115.38c35.47-57.98 353.85-378.21 410.26-406.3l101.3-114.13c-20.89-79.8-220.34-296.19-314.65-298.78-102.91-2.83-243.2 171.6-338.73 267.13-318.68 318.67-347.75 315.26-155.4 507.1 216.97 216.4 137.09 158.07 297.22 44.98z"/>
	</g>
	<g fill="#C9ECEB">
		<path d="M9125.75 7160.88l321.29 1.44 10.27-654.34c22.21-134.28 5.65-1964.79 7.02-2306.54.19-47.51 4.26-115.51-3.18-160.39-11.69-70.47-29.89-69.23-62.3-117.64H9129l-3.25 3237.47zM8044.76 8061.99c62.55-48.93 157.37-148.57 207.09-214.6 102.38-135.98 84.2-152.72 67.37-338.39l-17.78-17.7c-75.53-142.6-178.71-202.95-276.85-310.15-54.57-40.15-615.1-604.46-645.01-656.82-153.54-144.1-305.24-347.68-517.93-423.6-100.88-36.01-278.62-51.35-402.45-71.93-97.73-16.25-308.46-58.08-408.46-60.64-66.06 108.9-211.51 194.91-224.74 251.79 237.69 29.16 709.35 60.9 893.06 154.3 166.67 84.72 416.69 371.22 546.29 500.56 178.65 178.3 347.86 342.17 526.43 520.46 331.97 331.45 360.05 335.24 252.98 666.72zM9439.03 8258.28l45.6 44.54c184.25 148.36 225.63 164.15 336.18 33.9l777.24-923.99c34.23-40.69 62.84-78.5 97.2-115.45l388.48-469.14c-89.39-51.39-187.47-146.18-278.09-189.48l-349.45 402.88c-117.32 139.58-224.99 264.76-344.38 407.94-170.66 204.67-533.94 617.17-672.78 808.8z"/>
	</g>
	<g fill="#238C8A">
		<path d="M5243.91 11660.75c0 397.12 254.14 637.96 654.32 637.96 436.41 0 793.72-604.35 396.93-1034.89-100.62-109.17-263.14-171.11-419.89-185.56-321.07-29.58-631.36 274.35-631.36 582.49zM9835.28 5919.08c39.15 47.07 62.27 52.9 112.18 89.32 47.49 34.67 79.38 59.46 122.73 89.78 82.99 58.05 166.71 120.25 244.54 181.69l419.37 299.7c41.95 30.43 26.72 26.87 71.54 38.69 43.04-40.89 119.28-132.87 146.07-176.98-47.68-51.57-938.91-696.53-996.69-718.28-21.37 40.09-28.89 50.7-55.66 91.24-27.31 41.35-36.44 66.41-64.08 104.84z"/>
	</g>
	<g fill="#43D5C7">
		<path d="M7379.58 6524.33c29.91 52.36 590.44 616.67 645.01 656.82 3.47-2.28 9.35-8.73 11.36-5.15l102.39-12.61c49.71.84 98.16 4.56 148.16 5.31 92.31 1.39 185.67.08 278.09.08 153.48 0 422.33 15.37 561.16-7.9l3.25-3237.47h-192.15c-38.87 5.87-70.78 20.13-91.43 51.81-40.48 62.14-19.1 216.44-19.1 308.06 0 160.13-18.74 537.31 8.65 670.68-12.87 128.54 9.08 244.93-73.68 327.21-71.5 71.11-205.13 63.38-327.55 63.62-331.22.67-444.23-29.24-410.21-390.83 5.09-172.6 1.25-350.27 1.25-523.45 0-467.98 44.16-504.85-192.24-507.1H7494.94c-74.67 10.75-108.91 50.66-109.05 179.01-.44 396.05 22.48 2254.16-6.31 2421.91zM5529.98 6262.61c32.9 32.84 60.61 55.25 87.52 84.6 54.66 59.63 28.92 41.2 40.45 139.32 27.87 237.25 73.14 682.96 181.8 848.75 87.03 132.76 847.11 869.19 1019.51 1041.6 106.51 106.5 220.65 270.11 399 289.26 304.96 32.75 536.07-457.55 786.5-604.15 107.07-331.48 78.99-335.27-252.98-666.72-178.57-178.29-347.78-342.16-526.43-520.46-129.6-129.34-379.62-415.84-546.29-500.56-183.71-93.4-655.37-125.14-893.06-154.3 13.23-56.88 158.68-142.89 224.74-251.79-41.74-47.48-72.93-86.27-126.79-114.51-93.46 100.33-336.99 306.8-393.97 408.96z"/>
		<path d="M9457.31 6507.98l-10.27 654.34-321.29-1.44c69.02 36.58 233.83 9.04 327.26 7.25-.14 313.23-135.22 334.61-430.4 326.31-215.98-6.06-517.56 27.43-721.17-3.14l17.78 17.7 539.81-3.36c-25.02 37.54-43.16 70.05-69.06 111.27-117.48 186.92 80.67 231 410.28 480.09 65.29 49.35 165.39 130.73 238.78 161.28 138.84-191.63 502.12-604.13 672.78-808.8 119.39-143.18 227.06-268.36 344.38-407.94l349.45-402.88c90.62 43.3 188.7 138.09 278.09 189.48 37.4-16.65 119.51-140.39 158.66-172.95-38.09-44.53-233.24-190.94-290.68-213.91-26.79 44.11-103.03 136.09-146.07 176.98-44.82-11.82-29.59-8.26-71.54-38.69l-419.37-299.7c-77.83-61.44-161.55-123.64-244.54-181.69-43.35-30.32-75.24-55.11-122.73-89.78-49.91-36.42-73.03-42.25-112.18-89.32-29.26 45.95-51.72 88.73-83.46 140.32l-230.6 374.25c-37.62 63.86-8.17 42.58-63.91 74.33zM7910.27 11284.52v883.33c0 75.5 36.22 130.86 114.51 130.86h965.12c78.28 0 114.5-55.36 114.5-130.86v-883.33c0-59.78-45.14-130.87-98.14-130.87h-997.84c-53.01 0-98.15 71.09-98.15 130.87zM10187.08 5330.19l1087.79 791.39c56.58-131.41 211.16-264.85 272.63-399.93-62.39-62.06-152.31-98.63-199.27-162.44L10593 5019.38c-134.1-96.68-134.62-83.39-206.2 22.84-55.07 81.72-166.63 208.91-199.72 287.97z"/>
	</g>
	<path fill="#663C22" d="M8401.01 8552.73v948.76H5849.15c-76.35 0-114.5 38.14-114.5 114.51v605.24c-57.83 0-198.74 2.45-229.01 32.72-59.43 123.86 10.73 149.15 93.98 233.18 352.87 356.15 265.06 176.12 541.84-39.02 169.16-131.49 91.38-226.88-161.44-226.88v-474.38h2420.99v474.38c-84.9 0-245.37-12.18-245.37 98.15 0 101.89 101.06 145.95 159.69 200.18 243.23 224.95 170.51 228.98 400.36 16.36 151.34-139.97 200.04-108.81 159.7-281.97-73.37-35.21-144.13-32.72-229.01-32.72v-474.38h2355.55v474.38c-84.89 0-245.37-12.18-245.37 98.15 0 93.38 57.29 97.2 159.53 200.36 261.54 263.89 195.82 181.93 396.65 28.66 181.59-138.6 301.72-327.17 0-327.17h-65.44V9616c0-76.37-38.14-114.51-114.5-114.51H8646.38v-932.4c0-178.48-245.37-136.74-245.37-16.36z"/>
	<path fill="#238D8C" d="M8301.44 7491.3c203.61 30.57 505.19-2.92 721.17 3.14 295.18 8.3 430.26-13.08 430.4-326.31-93.43 1.79-258.24 29.33-327.26-7.25-138.83 23.27-407.68 7.9-561.16 7.9-92.42 0-185.78 1.31-278.09-.08-50-.75-98.45-4.47-148.16-5.31L8035.95 7176c-2.01-3.58-7.89 2.87-11.36 5.15 98.14 107.2 201.32 167.55 276.85 310.15z"/>
	<path fill="#238B89" d="M8834.97 4953.96h-811.44c-34.02 361.59 78.99 391.5 410.21 390.83 122.42-.24 256.05 7.49 327.55-63.62 82.76-82.28 60.81-198.67 73.68-327.21z"/>
	<path fill="#663C22" d="M11348.23 5559.21c46.96 63.81 136.88 100.38 199.27 162.44h10.61c64.97-92.63 133.37-182.98 196.29-276.95 125.82 29.31 234.94 240.2 370.3 125.28 153.68-130.47-112.93-267.22-178.77-316.81-177.51-133.68-227.79-188.9-352.97-18.99-48.9 66.36-198.23 290.04-244.73 325.03z"/>
	<path fill="#CAEEED" d="M11274.87 6121.58c36.94 35.81 85.72 64.25 139.46 104.95 48.06 36.39 79.91 73.61 143.78 85.13 24.24-90.74 245.37-320.05 245.37-376.22 0-58.85-175.76-164.03-245.37-213.79h-10.61c-61.47 135.08-216.05 268.52-272.63 399.93z"/>
	<path fill="#248E8C" d="M5389.82 6115.38l140.16 147.23c56.98-102.16 300.51-308.63 393.97-408.96-9.38-23.89 1.77-6.68-22.09-36.67-9.76-12.27-19.51-20.98-31.76-33.04-30.49-30.03-46.37-43.26-70.02-74.86-56.41 28.09-374.79 348.32-410.26 406.3z"/>
	<path fill="none" stroke="#C9ECEB" stroke-miterlimit="22.926" stroke-width="100" d="M5098.7 13118.58l-2963.8-2963.8c-795.76-795.77-795.77-2097.96 0-2893.73l5044-5044c795.78-795.78 2097.96-795.78 2893.74 0l5044 5044c795.78 795.77 795.77 2097.96 0 2893.73l-2963.8 2963.8H5098.7z"/>
	<text x="3556.98" y="12144.04" fill="#663C22" font-family="Century Gothic" font-size="1693.33">
		<tspan rotate="225">K</tspan>
	</text>
	<text x="2849.54" y="11436.6" fill="#663C22" font-family="Century Gothic" font-size="1693.33">
		<tspan rotate="225">Y</tspan>
	</text>
	<text x="2140.89" y="10727.95" fill="#663C22" font-family="Century Gothic" font-size="1693.33">
		<tspan rotate="225">I</tspan>
	</text>
	<text x="1816.77" y="10496.98" fill="#663C22" font-family="Century Gothic" font-size="1693.33">
		<tspan rotate="238">V</tspan>
	</text>
	<text x="1242.39" y="9457.23" fill="#663C22" font-family="Century Gothic" font-size="1693.33">
		<tspan rotate="258"/>
	</text>
	<text x="1146.14" y="8997.44" fill="#663C22" font-family="Century Gothic" font-size="1693.33">
		<tspan rotate="268"/>
	</text>
	<text x="1009.31" y="8487.65" fill="#663C22" font-family="Century Gothic" font-size="1693.33">
		<tspan rotate="294">M</tspan>
	</text>
	<text x="1719.89" y="7108.88" fill="#663C22" font-family="Century Gothic" font-size="1693.33">
		<tspan rotate="315">A</tspan>
	</text>
	<text x="2605.54" y="6223.23" fill="#663C22" font-family="Century Gothic" font-size="1693.33">
		<tspan rotate="315">T</tspan>
	</text>
	<text x="3115.42" y="5713.35" fill="#663C22" font-family="Century Gothic" font-size="1693.33">
		<tspan rotate="315">E</tspan>
	</text>
	<text x="3757.41" y="5071.36" fill="#663C22" font-family="Century Gothic" font-size="1693.33">
		<tspan rotate="315">R</tspan>
	</text>
	<text x="4484.21" y="4344.56" fill="#663C22" font-family="Century Gothic" font-size="1693.33">
		<tspan rotate="315">I</tspan>
	</text>
	<text x="4754.81" y="4073.96" fill="#663C22" font-family="Century Gothic" font-size="1693.33">
		<tspan rotate="315">A</tspan>
	</text>
	<text x="5640.47" y="3188.3" fill="#663C22" font-family="Century Gothic" font-size="1693.33">
		<tspan rotate="315">L</tspan>
	</text>
	<text x="6193.45" y="2635.32" fill="#663C22" font-family="Century Gothic" font-size="1693.33">
		<tspan rotate="315"/>
	</text>
	<text x="6524.92" y="2303.85" fill="#663C22" font-family="Century Gothic" font-size="1693.33">
		<tspan rotate="315"/>
	</text>
	<text x="6824.88" y="1932.56" fill="#663C22" font-family="Century Gothic" font-size="1693.33">
		<tspan rotate="326">R</tspan>
	</text>
	<text x="7690.7" y="1363.06" fill="#663C22" font-family="Century Gothic" font-size="1693.33">
		<tspan rotate="348">E</tspan>
	</text>
	<text x="8601.03" y="1128.1" fill="#663C22" font-family="Century Gothic" font-size="1693.33">
		<tspan rotate="15">C</tspan>
	</text>
	<text x="9942.77" y="1520" fill="#663C22" font-family="Century Gothic" font-size="1693.33">
		<tspan rotate="45">O</tspan>
	</text>
	<text x="10983.48" y="2560.71" fill="#663C22" font-family="Century Gothic" font-size="1693.33">
		<tspan rotate="45">V</tspan>
	</text>
	<text x="11824.23" y="3401.46" fill="#663C22" font-family="Century Gothic" font-size="1693.33">
		<tspan rotate="45">E</tspan>
	</text>
	<text x="12466.21" y="4043.44" fill="#663C22" font-family="Century Gothic" font-size="1693.33">
		<tspan rotate="45">R</tspan>
	</text>
	<text x="13193.01" y="4770.24" fill="#663C22" font-family="Century Gothic" font-size="1693.33">
		<tspan rotate="45">Y</tspan>
	</text>
	<text x="13901.66" y="5478.89" fill="#663C22" font-family="Century Gothic" font-size="1693.33">
		<tspan rotate="45"/>
	</text>
	<text x="14233.13" y="5810.36" fill="#663C22" font-family="Century Gothic" font-size="1693.33">
		<tspan rotate="45"/>
	</text>
	<text x="14564.6" y="6141.83" fill="#663C22" font-family="Century Gothic" font-size="1693.33">
		<tspan rotate="45"/>
	</text>
	<text x="14896.07" y="6473.3" fill="#663C22" font-family="Century Gothic" font-size="1693.33">
		<tspan rotate="45">F</tspan>
	</text>
	<text x="15525.05" y="7021.77" fill="#663C22" font-family="Century Gothic" font-size="1693.33">
		<tspan rotate="60">A</tspan>
	</text>
	<text x="16160.53" y="8149.14" fill="#663C22" font-family="Century Gothic" font-size="1693.33">
		<tspan rotate="94">C</tspan>
	</text>
	<text x="15987.03" y="9512.05" fill="#663C22" font-family="Century Gothic" font-size="1693.33">
		<tspan rotate="114">I</tspan>
	</text>
	<text x="15854.31" y="9878.02" fill="#663C22" font-family="Century Gothic" font-size="1693.33">
		<tspan rotate="127">L</tspan>
	</text>
	<text x="15357.69" y="10480.91" fill="#663C22" font-family="Century Gothic" font-size="1693.33">
		<tspan rotate="135">I</tspan>
	</text>
	<text x="15087.09" y="10751.51" fill="#663C22" font-family="Century Gothic" font-size="1693.33">
		<tspan rotate="135">T</tspan>
	</text>
	<text x="14577.21" y="11261.39" fill="#663C22" font-family="Century Gothic" font-size="1693.33">
		<tspan rotate="135">Y</tspan>
	</text>
	<text x="13868.57" y="11970.03" fill="#663C22" font-family="Century Gothic" font-size="1693.33">
		<tspan rotate="135"/>
	</text>
	<text x="13537.1" y="12301.5" fill="#663C22" font-family="Century Gothic" font-size="1693.33">
		<tspan rotate="135"/>
	</text>
	<text x="13205.63" y="12632.97" fill="#663C22" font-family="Century Gothic" font-size="1693.33">
		<tspan rotate="135"/>
	</text>
</svg>