<?xml version="1.0" encoding="UTF-8"?>
<svg xmlns="http://www.w3.org/2000/svg" xml:space="preserve" width="309px" height="313px" version="1.1" shape-rendering="geometricPrecision" text-rendering="geometricPrecision" image-rendering="optimizeQuality" fill-rule="evenodd" clip-rule="evenodd" viewBox="0 0 300.14 303.47" xmlns:xlink="http://www.w3.org/1999/xlink">
 <g id="Layer_x0020_1">
  <g id="_2498078982768">
   <path fill="#414141" d="M103.36 133.77c22.83,-8.04 0.65,1.06 17.06,-15.11l7.14 16.83 49.15 0.94c5.02,-11.42 0.64,-6.5 8.02,-17.7 12.49,18.39 -2.06,14.18 16.17,16.25 9.37,-11.12 6,-33.84 1.36,-48.29 -23.99,-20.12 -30.8,-0.82 -49.81,10.29 -14.58,-9.48 -19.53,-27.5 -41.17,-18.21 -18.82,8.08 -15.63,42.05 -7.92,55z"/>
   <path fill="#414141" d="M128.78 249.07c23.06,5.05 86.21,5.62 104.4,-7.42l-53.92 -42.06 -50.48 49.48z"/>
   <path fill="#414141" d="M234.68 127.28c21.69,3.19 53.83,-8.03 64.41,-27.02 -6.2,-21.56 -42.76,-34.25 -64.05,-31.43l-0.36 58.45z"/>
   <path fill="#414141" d="M53.85 237.34c11.23,7.54 31.13,11.27 46.5,11.39 17.68,0.14 21.55,-6.94 31,-19.71 -8.59,-10.57 -26.96,-23.58 -39.64,-27.56l-37.86 35.88z"/>
  </g>
  <path fill="#404040" d="M124.89 160.84c23.85,-19.44 43.67,18.76 22.86,31.79 -18.22,11.4 -45.96,-12.97 -22.86,-31.79zm-32.6 25.24l48.93 33.43 40.18 -31.61c18.98,13.23 36.25,28.27 54.82,42.87 21.13,16.6 44.19,5.51 62.51,-13.15l1.41 -95.95c-67.85,18.44 -66.88,27.02 -155.84,25.4 -94.18,-1.71 -111.61,-24.45 -143.75,-30.08l-0.55 96.38c13.54,14.05 19.77,18.87 40,21.52l52.29 -48.81z"/>
  <path fill="#424242" d="M1.36 96.81c10.62,17.1 43.31,28.84 63.94,29.25l1.18 -61.04c-23.13,-1.66 -57.55,7.72 -65.12,31.79z"/>
  <path fill="#484848" d="M144.34 11.63l17.77 1.18c13.05,17.57 11.68,46.52 -13.3,42.8 -21.36,-3.17 -19.35,-29.49 -4.47,-43.98zm-3.46 -9.19c-37.13,15.28 -16.05,80.06 23.75,61.3 31.74,-14.97 13.57,-76.67 -23.75,-61.3z"/>
  <path fill="#FDFDFD" d="M144.34 11.63c-14.88,14.49 -16.89,40.81 4.47,43.98 24.98,3.72 26.35,-25.23 13.3,-42.8l-17.77 -1.18z"/>
  <path fill="whitesmoke" d="M128.48 176.74c-1.34,-14.97 3.15,-7.1 7.83,-9.98 5.88,3.42 8.56,-4.73 8.1,9.92 -0.21,6.73 -1.59,7.28 -8.03,7.29 -6.62,0.02 -7.32,-0.73 -7.9,-7.23zm-3.59 -15.9c-23.1,18.82 4.64,43.19 22.86,31.79 20.81,-13.03 0.99,-51.23 -22.86,-31.79z"/>
  <path fill="#434343" d="M175.28 262.04l-16.78 1.44c-2.75,24.77 -8.23,37.95 16.31,39.99l0.47 -41.43z"/>
  <path fill="#454545" d="M129.62 262.64c-1.68,14.57 -2.93,25.94 2.97,40.23l13.1 -1.09 0.34 -38.49 -16.41 -0.65z"/>
  <path fill="#444444" d="M136.31 166.76c-4.68,2.88 -9.17,-4.99 -7.83,9.98 0.58,6.5 1.28,7.25 7.9,7.23 6.44,-0.01 7.82,-0.56 8.03,-7.29 0.46,-14.65 -2.22,-6.5 -8.1,-9.92z"/>
 </g>
</svg>
