<?xml version="1.0" encoding="UTF-8"?>
<svg xmlns="http://www.w3.org/2000/svg" xml:space="preserve" width="100%" height="100%" version="1.1" viewBox="0 0 13462.27 13390.73" xmlns:xlink="http://www.w3.org/1999/xlink">
 <g>
  <rect fill="#2B2A29" stroke="#2B2A29" stroke-width="22.43" stroke-miterlimit="22.9256" x="3141.38" y="10325.52" width="10309.67" height="3053.99"/>
  <rect fill="#2B2A29" stroke="#2B2A29" stroke-width="22.43" stroke-miterlimit="22.9256" x="11.22" y="11.22" width="3137.1" height="13364.46"/>
  <rect fill="#FFED00" x="3136.71" y="3.33" width="10320.48" height="10320.48"/>
  <g>
   <path fill="black" d="M10261.77 4795.25l-421.89 -70.38c-30.66,-125.36 -75.37,-245.19 -133.6,-356.96l270.09 -334.86c57.44,-70.77 54.83,-172.6 -5.73,-240.9l-167.8 -188.84c-60.81,-68.24 -161.68,-82.66 -238.62,-34.06l-360.79 226.8c-158.69,-110.87 -338.45,-192.74 -532.36,-240.25l-70.58 -424.15c-14.81,-89.81 -92.53,-155.71 -183.76,-155.71l-252.86 0c-91.04,0 -169.03,65.9 -183.51,155.71l-70.97 424.28c-160.32,39.25 -310.63,102.62 -447.81,186.06l-343.12 -244.87c-73.96,-52.83 -175.53,-44.57 -240.06,19.83l-178.64 178.76c-64.4,64.54 -72.66,166.1 -19.69,240.06l245.45 343.78c-82.66,136.14 -145.37,285.6 -184.62,444.49l-426.56 71.22c-89.68,14.82 -155.71,92.54 -155.71,183.78l0 252.65c0,91.24 66.03,168.97 155.7,183.77l426.57 71.23c32.23,130.75 79.02,255.65 141.21,371.44l-268.85 332.98c-57.25,70.71 -54.84,172.6 5.72,240.85l167.67 188.83c60.82,68.37 161.74,82.54 238.68,34.05l366 -229.91c154.86,105.93 330.05,183.77 518.06,229.91l70.97 424.23c14.48,89.82 92.46,155.71 183.51,155.71l252.86 0c91.23,0 168.95,-65.89 183.76,-155.71l70.71 -424.22c158.32,-38.73 306.73,-100.99 442.68,-183l357.42 255.26c73.82,53.03 175.47,44.71 239.93,-19.89l178.72 -178.7c64.32,-64.35 73.03,-165.86 19.62,-239.94l-254.47 -356.77c82.9,-136.6 145.94,-286.33 184.94,-445.93l421.88 -70.44c89.94,-14.81 155.7,-92.54 155.7,-183.77l0 -252.66c-0.14,-91.23 -65.9,-168.95 -155.84,-183.76l-0.01 0zm-1966.96 1108.65c-440.93,0 -798.53,-357.68 -798.53,-798.54 0,-440.91 357.6,-798.53 798.53,-798.53 440.85,0 798.52,357.62 798.52,798.53 0,440.86 -357.67,798.54 -798.52,798.54z"/>
  </g>
  <circle fill="none" stroke="#2B2A29" stroke-width="448.65" stroke-miterlimit="22.9256" cx="8288.12" cy="5105.36" r="2785.36"/>
  <g>
   <path fill="#2B2A29" fill-rule="nonzero" d="M8456.53 1381.36l0 933.65 -287.44 0 0 -933.65 287.44 0zm-718.58 -397.24l287.43 0 0 0 0.38 14.85 1.11 14.58 1.83 14.32 2.53 14.08 3.19 13.84 3.86 13.55 4.5 13.28 5.13 13 5.75 12.7 6.34 12.39 6.93 12.03 7.49 11.69 8.04 11.31 8.56 10.9 9.07 10.47 9.56 10.03 10.03 9.58 10.48 9.08 10.89 8.58 11.29 8.04 11.69 7.51 12.03 6.93 12.37 6.34 12.71 5.77 12.99 5.14 13.3 4.51 13.57 3.86 13.84 3.2 14.1 2.54 14.36 1.83 14.62 1.11 14.89 0.38 0 287.44 -29.45 -0.75 -29.15 -2.23 -28.78 -3.66 -28.35 -5.08 -27.88 -6.46 -27.34 -7.79 -26.77 -9.08 -26.15 -10.34 -25.49 -11.55 -24.81 -12.74 -24.07 -13.88 -23.31 -14.96 -22.52 -16.04 -21.68 -17.07 -20.81 -18.04 -19.93 -19.02 -19 -19.94 -18.04 -20.84 -17.04 -21.69 -16 -22.52 -14.95 -23.31 -13.84 -24.07 -12.71 -24.79 -11.52 -25.48 -10.32 -26.13 -9.06 -26.74 -7.76 -27.31 -6.44 -27.83 -5.07 -28.3 -3.66 -28.74 -2.22 -29.1 -0.75 -29.41 0 0 0.01 0.03zm574.87 -574.87l0 287.44 0 0 -14.9 0.38 -14.62 1.11 -14.36 1.83 -14.1 2.53 -13.84 3.21 -13.57 3.86 -13.29 4.51 -13 5.14 -12.7 5.76 -12.37 6.35 -12.04 6.93 -11.68 7.51 -11.29 8.04 -10.89 8.58 -10.48 9.08 -10.03 9.57 -9.57 10.04 -9.06 10.47 -8.56 10.9 -8.04 11.31 -7.5 11.68 -6.92 12.04 -6.35 12.39 -5.74 12.69 -5.13 13 -4.51 13.29 -3.85 13.55 -3.2 13.83 -2.53 14.09 -1.82 14.31 -1.12 14.59 -0.37 14.85 -287.44 0 0.75 -29.4 2.22 -29.11 3.66 -28.73 5.07 -28.31 6.44 -27.83 7.76 -27.3 9.06 -26.75 10.32 -26.13 11.52 -25.47 12.71 -24.8 13.84 -24.07 14.95 -23.31 16.01 -22.52 17.03 -21.69 18.04 -20.84 19 -19.94 19.93 -19.01 20.81 -18.05 21.69 -17.07 22.51 -16.03 23.31 -14.97 24.07 -13.88 24.82 -12.73 25.48 -11.56 26.16 -10.34 26.76 -9.08 27.35 -7.79 27.87 -6.45 28.35 -5.08 28.78 -3.67 29.15 -2.23 29.45 -0.75 0 0 0 0.03zm574.87 574.87l-287.44 0 0 0 -0.37 -14.85 -1.12 -14.58 -1.82 -14.32 -2.53 -14.08 -3.2 -13.84 -3.85 -13.55 -4.5 -13.28 -5.14 -13 -5.74 -12.7 -6.35 -12.39 -6.92 -12.03 -7.5 -11.69 -8.04 -11.31 -8.56 -10.9 -9.06 -10.47 -9.57 -10.03 -10.02 -9.58 -10.49 -9.08 -10.89 -8.58 -11.29 -8.04 -11.68 -7.51 -12.03 -6.93 -12.37 -6.34 -12.71 -5.77 -13 -5.14 -13.29 -4.51 -13.57 -3.86 -13.84 -3.2 -14.1 -2.53 -14.36 -1.84 -14.62 -1.11 -14.9 -0.38 0 -287.44 29.46 0.75 29.15 2.23 28.78 3.66 28.35 5.09 27.87 6.45 27.35 7.79 26.76 9.08 26.16 10.34 25.48 11.55 24.82 12.74 24.07 13.88 23.31 14.96 22.51 16.04 21.69 17.07 20.81 18.05 19.92 19.01 19.01 19.94 18.04 20.84 17.03 21.69 16.01 22.52 14.94 23.31 13.85 24.07 12.7 24.8 11.53 25.47 10.31 26.13 9.07 26.74 7.76 27.32 6.44 27.82 5.07 28.31 3.65 28.73 2.23 29.11 0.75 29.4 0 0 -0.01 -0.03zm-574.87 574.88l0 -287.44 14.89 -0.38 14.62 -1.11 14.36 -1.84 14.1 -2.53 13.84 -3.2 13.57 -3.86 13.29 -4.51 13 -5.14 12.71 -5.77 12.37 -6.34 12.03 -6.93 11.69 -7.51 11.29 -8.04 10.89 -8.58 10.48 -9.08 10.03 -9.58 9.56 -10.03 9.07 -10.47 8.56 -10.9 8.04 -11.31 7.49 -11.69 6.93 -12.03 6.34 -12.39 5.75 -12.7 5.13 -13 4.5 -13.28 3.85 -13.55 3.2 -13.84 2.53 -14.08 1.83 -14.32 1.11 -14.58 0.37 -14.85 287.44 0 -0.75 29.4 -2.22 29.11 -3.66 28.73 -5.07 28.31 -6.43 27.83 -7.76 27.3 -9.07 26.74 -10.31 26.14 -11.53 25.47 -12.7 24.8 -13.85 24.06 -14.95 23.32 -16 22.51 -17.03 21.7 -18.05 20.84 -19 19.93 -19.92 19.02 -20.81 18.05 -21.69 17.07 -22.51 16.03 -23.32 14.97 -24.07 13.87 -24.81 12.74 -25.49 11.56 -26.15 10.33 -26.77 9.09 -27.34 7.79 -27.88 6.45 -28.35 5.08 -28.78 3.67 -29.15 2.22 -29.45 0.75 0.01 -0.02z"/>
  </g>
  <g>
   <path fill="#2B2A29" fill-rule="nonzero" d="M8169.1 8843.06l0 -933.65 287.44 0 0 933.65 -287.44 0zm718.59 397.23l-287.44 0 0 0 -0.37 -14.85 -1.12 -14.58 -1.82 -14.32 -2.53 -14.08 -3.2 -13.83 -3.85 -13.55 -4.5 -13.29 -5.14 -13 -5.74 -12.7 -6.35 -12.38 -6.92 -12.04 -7.5 -11.69 -8.04 -11.3 -8.56 -10.9 -9.06 -10.48 -9.57 -10.03 -10.02 -9.57 -10.49 -9.09 -10.89 -8.57 -11.29 -8.05 -11.68 -7.5 -12.03 -6.94 -12.37 -6.34 -12.71 -5.76 -13 -5.14 -13.29 -4.51 -13.57 -3.87 -13.84 -3.2 -14.1 -2.53 -14.36 -1.83 -14.62 -1.12 -14.9 -0.38 0 -287.43 29.46 0.74 29.15 2.23 28.78 3.67 28.35 5.08 27.87 6.45 27.35 7.79 26.76 9.09 26.16 10.33 25.48 11.56 24.82 12.73 24.07 13.88 23.31 14.97 22.51 16.03 21.69 17.07 20.81 18.05 19.92 19.02 19.01 19.93 18.04 20.84 17.03 21.7 16.01 22.51 14.94 23.31 13.85 24.07 12.7 24.8 11.53 25.47 10.31 26.14 9.07 26.74 7.76 27.3 6.44 27.83 5.07 28.31 3.65 28.73 2.23 29.11 0.75 29.4 0 0 -0.01 -0.03zm-574.87 574.88l0 -287.44 0 0 14.89 -0.38 14.62 -1.12 14.36 -1.83 14.1 -2.53 13.84 -3.2 13.57 -3.87 13.29 -4.51 13 -5.13 12.71 -5.77 12.37 -6.34 12.03 -6.93 11.69 -7.51 11.29 -8.04 10.89 -8.58 10.48 -9.09 10.03 -9.57 9.56 -10.03 9.07 -10.48 8.56 -10.89 8.04 -11.31 7.49 -11.69 6.93 -12.04 6.34 -12.38 5.75 -12.7 5.13 -13 4.5 -13.29 3.85 -13.55 3.2 -13.83 2.53 -14.08 1.83 -14.32 1.11 -14.58 0.37 -14.85 287.44 0 -0.75 29.4 -2.22 29.1 -3.66 28.74 -5.07 28.3 -6.43 27.83 -7.76 27.31 -9.07 26.74 -10.31 26.13 -11.53 25.48 -12.7 24.79 -13.85 24.07 -14.95 23.32 -16 22.51 -17.03 21.69 -18.05 20.84 -19 19.94 -19.92 19.02 -20.81 18.05 -21.69 17.06 -22.51 16.04 -23.32 14.97 -24.07 13.87 -24.81 12.74 -25.49 11.56 -26.15 10.33 -26.77 9.09 -27.34 7.79 -27.88 6.45 -28.35 5.08 -28.78 3.66 -29.15 2.23 -29.45 0.75 0 0 0.01 -0.02zm-574.87 -574.88l287.43 0 0 0 0.38 14.86 1.11 14.58 1.83 14.32 2.53 14.08 3.19 13.83 3.86 13.55 4.5 13.29 5.13 13 5.75 12.7 6.34 12.38 6.93 12.04 7.49 11.68 8.04 11.31 8.56 10.9 9.07 10.48 9.56 10.03 10.03 9.57 10.48 9.08 10.89 8.58 11.29 8.04 11.69 7.51 12.03 6.93 12.37 6.35 12.71 5.76 12.99 5.14 13.3 4.51 13.57 3.87 13.84 3.2 14.1 2.53 14.36 1.83 14.62 1.12 14.89 0.37 0 287.44 -29.45 -0.75 -29.15 -2.23 -28.78 -3.66 -28.35 -5.08 -27.88 -6.45 -27.34 -7.79 -26.77 -9.09 -26.15 -10.33 -25.49 -11.56 -24.81 -12.74 -24.07 -13.87 -23.31 -14.97 -22.52 -16.04 -21.68 -17.06 -20.81 -18.05 -19.93 -19.02 -19 -19.93 -18.04 -20.85 -17.04 -21.69 -16 -22.51 -14.95 -23.32 -13.84 -24.06 -12.71 -24.8 -11.52 -25.47 -10.32 -26.14 -9.06 -26.74 -7.76 -27.3 -6.44 -27.84 -5.07 -28.3 -3.66 -28.73 -2.22 -29.11 -0.75 -29.4 0 0 0.01 0.02zm574.87 -574.87l0 287.44 -14.9 0.38 -14.62 1.11 -14.36 1.84 -14.1 2.53 -13.84 3.2 -13.57 3.86 -13.29 4.51 -13 5.14 -12.7 5.77 -12.37 6.34 -12.04 6.93 -11.68 7.51 -11.29 8.04 -10.89 8.58 -10.48 9.09 -10.03 9.57 -9.57 10.03 -9.06 10.48 -8.56 10.89 -8.04 11.31 -7.5 11.69 -6.92 12.04 -6.35 12.38 -5.74 12.7 -5.13 13 -4.51 13.29 -3.85 13.55 -3.2 13.83 -2.53 14.08 -1.82 14.32 -1.12 14.58 -0.37 14.85 -287.44 0 0.75 -29.4 2.22 -29.1 3.66 -28.74 5.07 -28.3 6.44 -27.83 7.76 -27.31 9.06 -26.74 10.32 -26.14 11.52 -25.47 12.71 -24.79 13.84 -24.07 14.95 -23.32 16.01 -22.51 17.03 -21.69 18.04 -20.85 19 -19.93 19.93 -19.02 20.81 -18.05 21.69 -17.06 22.51 -16.04 23.31 -14.97 24.07 -13.87 24.82 -12.74 25.48 -11.56 26.16 -10.33 26.76 -9.09 27.35 -7.79 27.87 -6.45 28.35 -5.08 28.78 -3.66 29.15 -2.23 29.45 -0.75 0 0.02z"/>
  </g>
  <g>
   <path fill="#2B2A29" fill-rule="nonzero" d="M12037.25 5222.67l-933.65 0 0 -287.44 933.65 0 0 287.44zm397.24 -718.59l0 287.44 0 0 -14.85 0.37 -14.58 1.11 -14.32 1.83 -14.08 2.53 -13.83 3.2 -13.55 3.85 -13.29 4.5 -13 5.13 -12.7 5.75 -12.38 6.34 -12.04 6.93 -11.69 7.49 -11.31 8.04 -10.89 8.56 -10.48 9.07 -10.03 9.57 -9.57 10.02 -9.09 10.48 -8.58 10.89 -8.04 11.29 -7.51 11.69 -6.93 12.03 -6.34 12.37 -5.77 12.71 -5.14 13 -4.51 13.29 -3.86 13.57 -3.2 13.84 -2.53 14.1 -1.84 14.36 -1.11 14.62 -0.38 14.89 -287.44 0 0.75 -29.45 2.23 -29.15 3.67 -28.78 5.08 -28.35 6.45 -27.87 7.79 -27.35 9.08 -26.77 10.34 -26.15 11.56 -25.48 12.73 -24.82 13.88 -24.07 14.97 -23.31 16.03 -22.52 17.07 -21.68 18.05 -20.81 19.01 -19.93 19.94 -19 20.84 -18.04 21.69 -17.04 22.52 -16 23.31 -14.95 24.07 -13.84 24.8 -12.71 25.47 -11.52 26.13 -10.32 26.74 -9.06 27.32 -7.76 27.82 -6.44 28.31 -5.07 28.73 -3.66 29.11 -2.22 29.4 -0.75 0 0 -0.03 0.01zm574.87 574.87l-287.44 0 0 0 -0.37 -14.9 -1.12 -14.62 -1.83 -14.35 -2.53 -14.1 -3.2 -13.84 -3.87 -13.57 -4.51 -13.3 -5.14 -13 -5.76 -12.7 -6.35 -12.37 -6.93 -12.03 -7.51 -11.69 -8.04 -11.29 -8.58 -10.89 -9.08 -10.48 -9.57 -10.03 -10.03 -9.56 -10.48 -9.07 -10.9 -8.56 -11.31 -8.04 -11.68 -7.5 -12.04 -6.92 -12.38 -6.34 -12.7 -5.75 -13 -5.13 -13.29 -4.51 -13.55 -3.85 -13.83 -3.19 -14.08 -2.53 -14.32 -1.83 -14.58 -1.11 -14.86 -0.38 0 -287.44 29.41 0.75 29.1 2.23 28.74 3.66 28.3 5.06 27.82 6.44 27.32 7.76 26.74 9.07 26.13 10.31 25.48 11.53 24.8 12.7 24.06 13.85 23.31 14.94 22.52 16.01 21.69 17.03 20.84 18.04 19.94 19.01 19.01 19.92 18.05 20.81 17.07 21.69 16.04 22.51 14.96 23.32 13.88 24.07 12.74 24.81 11.55 25.48 10.34 26.16 9.08 26.76 7.79 27.35 6.46 27.87 5.08 28.35 3.66 28.78 2.23 29.15 0.75 29.46 0 0 -0.03 -0.01zm-574.87 574.88l0 -287.44 0 0 14.85 -0.37 14.58 -1.12 14.32 -1.82 14.09 -2.53 13.83 -3.2 13.55 -3.85 13.29 -4.51 12.99 -5.13 12.7 -5.74 12.39 -6.35 12.04 -6.92 11.68 -7.5 11.31 -8.04 10.9 -8.56 10.47 -9.06 10.04 -9.57 9.57 -10.03 9.08 -10.48 8.58 -10.89 8.04 -11.29 7.51 -11.68 6.93 -12.03 6.34 -12.38 5.77 -12.7 5.14 -13 4.51 -13.29 3.86 -13.57 3.21 -13.84 2.53 -14.1 1.83 -14.36 1.11 -14.62 0.38 -14.9 287.44 0 -0.75 29.45 -2.23 29.16 -3.66 28.77 -5.08 28.35 -6.45 27.88 -7.8 27.34 -9.08 26.77 -10.33 26.15 -11.56 25.49 -12.74 24.81 -13.88 24.07 -14.96 23.32 -16.04 22.51 -17.07 21.69 -18.04 20.81 -19.02 19.92 -19.94 19 -20.84 18.05 -21.69 17.03 -22.51 16.01 -23.32 14.94 -24.06 13.85 -24.8 12.7 -25.48 11.53 -26.13 10.31 -26.74 9.07 -27.31 7.76 -27.83 6.44 -28.3 5.06 -28.74 3.66 -29.1 2.23 -29.4 0.74 0 0 0.02 0zm-574.87 -574.88l287.44 0 0.38 14.9 1.11 14.62 1.83 14.35 2.53 14.1 3.21 13.84 3.86 13.57 4.51 13.3 5.14 13 5.77 12.7 6.34 12.37 6.93 12.03 7.51 11.69 8.04 11.29 8.58 10.89 9.08 10.48 9.58 10.03 10.03 9.56 10.47 9.07 10.9 8.56 11.31 8.04 11.68 7.49 12.04 6.93 12.39 6.34 12.7 5.75 12.99 5.13 13.29 4.51 13.55 3.85 13.84 3.19 14.08 2.53 14.32 1.83 14.58 1.11 14.85 0.38 0 287.44 -29.4 -0.75 -29.11 -2.23 -28.73 -3.66 -28.31 -5.06 -27.82 -6.44 -27.31 -7.76 -26.75 -9.07 -26.13 -10.31 -25.47 -11.53 -24.8 -12.7 -24.07 -13.85 -23.31 -14.94 -22.51 -16.01 -21.7 -17.03 -20.84 -18.04 -19.94 -19.01 -19.01 -19.92 -18.05 -20.81 -17.07 -21.69 -16.03 -22.51 -14.97 -23.32 -13.88 -24.07 -12.73 -24.81 -11.56 -25.49 -10.33 -26.15 -9.09 -26.76 -7.79 -27.35 -6.45 -27.87 -5.08 -28.35 -3.67 -28.78 -2.23 -29.15 -0.75 -29.46 0.03 0.01z"/>
  </g>
  <g>
   <path fill="#2B2A29" fill-rule="nonzero" d="M4542.23 4949.74l933.66 0 0 287.44 -933.66 0 0 -287.44zm-397.23 718.59l0 -287.44 0 0 14.85 -0.37 14.58 -1.11 14.32 -1.83 14.08 -2.53 13.83 -3.2 13.55 -3.85 13.29 -4.5 13 -5.13 12.7 -5.75 12.38 -6.34 12.04 -6.93 11.69 -7.49 11.3 -8.04 10.9 -8.56 10.48 -9.07 10.03 -9.56 9.57 -10.03 9.09 -10.48 8.58 -10.89 8.04 -11.29 7.5 -11.69 6.94 -12.03 6.34 -12.37 5.77 -12.71 5.13 -13 4.51 -13.29 3.87 -13.57 3.2 -13.84 2.53 -14.1 1.83 -14.36 1.12 -14.62 0.38 -14.89 287.44 0 -0.75 29.45 -2.23 29.15 -3.67 28.78 -5.08 28.35 -6.45 27.88 -7.79 27.34 -9.09 26.77 -10.33 26.15 -11.56 25.49 -12.73 24.81 -13.88 24.07 -14.97 23.31 -16.03 22.52 -17.07 21.68 -18.05 20.81 -19.01 19.93 -19.94 19 -20.84 18.04 -21.7 17.04 -22.51 16 -23.31 14.95 -24.07 13.84 -24.8 12.71 -25.47 11.52 -26.14 10.32 -26.74 9.06 -27.3 7.76 -27.83 6.44 -28.31 5.07 -28.73 3.66 -29.11 2.22 -29.4 0.75 0 0 0.03 -0.01zm-574.88 -574.87l287.44 0 0 0 0.38 14.9 1.12 14.62 1.83 14.35 2.53 14.11 3.2 13.83 3.87 13.57 4.51 13.3 5.13 13 5.77 12.7 6.34 12.37 6.94 12.04 7.5 11.68 8.04 11.29 8.58 10.89 9.09 10.48 9.57 10.03 10.03 9.56 10.48 9.07 10.9 8.56 11.3 8.04 11.69 7.5 12.04 6.92 12.38 6.34 12.7 5.75 13 5.13 13.29 4.51 13.55 3.85 13.83 3.19 14.08 2.54 14.32 1.82 14.58 1.12 14.85 0.37 0 287.44 -29.4 -0.75 -29.1 -2.23 -28.74 -3.65 -28.3 -5.07 -27.83 -6.44 -27.31 -7.76 -26.74 -9.06 -26.13 -10.32 -25.48 -11.53 -24.79 -12.7 -24.07 -13.84 -23.32 -14.95 -22.51 -16.01 -21.69 -17.03 -20.84 -18.04 -19.94 -19.01 -19.02 -19.92 -18.04 -20.81 -17.07 -21.69 -16.04 -22.51 -14.96 -23.31 -13.88 -24.07 -12.74 -24.82 -11.56 -25.48 -10.33 -26.16 -9.09 -26.76 -7.79 -27.35 -6.45 -27.87 -5.08 -28.35 -3.66 -28.78 -2.23 -29.15 -0.75 -29.46 0 0 0.02 0.01zm574.88 -574.87l0 287.44 0 0 -14.85 0.37 -14.59 1.11 -14.32 1.83 -14.08 2.53 -13.83 3.2 -13.55 3.85 -13.29 4.5 -13 5.13 -12.7 5.75 -12.38 6.34 -12.04 6.93 -11.68 7.5 -11.31 8.04 -10.9 8.56 -10.47 9.06 -10.04 9.57 -9.57 10.02 -9.08 10.48 -8.58 10.9 -8.04 11.28 -7.51 11.69 -6.93 12.03 -6.35 12.37 -5.76 12.71 -5.14 13 -4.51 13.29 -3.86 13.57 -3.21 13.84 -2.53 14.1 -1.83 14.36 -1.12 14.62 -0.37 14.89 -287.44 0 0.75 -29.45 2.23 -29.15 3.66 -28.78 5.08 -28.35 6.45 -27.87 7.79 -27.35 9.09 -26.76 10.33 -26.16 11.56 -25.48 12.74 -24.82 13.87 -24.07 14.97 -23.31 16.04 -22.51 17.06 -21.69 18.05 -20.81 19.02 -19.92 19.93 -19.01 20.85 -18.04 21.69 -17.03 22.51 -16.01 23.32 -14.95 24.06 -13.84 24.8 -12.71 25.47 -11.52 26.14 -10.32 26.74 -9.06 27.3 -7.76 27.84 -6.44 28.3 -5.07 28.74 -3.65 29.1 -2.23 29.4 -0.75 0 0 -0.02 0.01zm574.87 574.87l-287.44 0 -0.38 -14.89 -1.11 -14.62 -1.84 -14.36 -2.53 -14.1 -3.2 -13.84 -3.86 -13.57 -4.51 -13.3 -5.14 -13 -5.77 -12.7 -6.34 -12.37 -6.93 -12.03 -7.51 -11.69 -8.04 -11.29 -8.58 -10.89 -9.09 -10.48 -9.57 -10.03 -10.03 -9.56 -10.48 -9.07 -10.89 -8.56 -11.31 -8.04 -11.69 -7.49 -12.04 -6.93 -12.38 -6.34 -12.7 -5.75 -13 -5.13 -13.28 -4.5 -13.56 -3.86 -13.83 -3.19 -14.08 -2.53 -14.32 -1.83 -14.58 -1.11 -14.85 -0.38 0 -287.43 29.4 0.75 29.11 2.22 28.73 3.66 28.3 5.06 27.83 6.44 27.31 7.76 26.74 9.07 26.14 10.31 25.47 11.53 24.79 12.7 24.07 13.85 23.32 14.94 22.51 16.01 21.69 17.03 20.85 18.05 19.93 19 19.02 19.92 18.05 20.81 17.06 21.69 16.04 22.51 14.97 23.32 13.87 24.07 12.74 24.81 11.56 25.49 10.33 26.15 9.09 26.77 7.79 27.34 6.45 27.88 5.08 28.35 3.66 28.77 2.23 29.16 0.75 29.45 -0.02 -0.01z"/>
  </g>
  <g>
   <path fill="#2B2A29" fill-rule="nonzero" d="M5768.66 2337.61l660.2 660.2 -203.25 203.25 -660.2 -660.2 203.25 -203.25zm-789.01 227.24l203.25 -203.25 0 0 10.77 10.24 11.1 9.52 11.42 8.84 11.74 8.17 12.04 7.51 12.31 6.86 12.58 6.21 12.82 5.56 13.05 4.92 13.24 4.26 13.41 3.62 13.55 2.96 13.69 2.31 13.77 1.65 13.81 1 13.86 0.34 13.86 -0.32 13.83 -0.99 13.77 -1.64 13.67 -2.3 13.57 -2.95 13.41 -3.61 13.24 -4.26 13.05 -4.9 12.83 -5.56 12.59 -6.21 12.33 -6.86 12.05 -7.52 11.76 -8.19 11.45 -8.85 11.13 -9.55 10.8 -10.27 203.25 203.25 -21.35 20.29 -22.19 19.04 -22.94 17.76 -23.65 16.45 -24.26 15.15 -24.84 13.83 -25.36 12.5 -25.8 11.18 -26.19 9.86 -26.54 8.54 -26.84 7.22 -27.07 5.89 -27.25 4.59 -27.4 3.26 -27.49 1.95 -27.53 0.65 -27.54 -0.67 -27.49 -1.98 -27.38 -3.3 -27.24 -4.6 -27.05 -5.91 -26.82 -7.23 -26.51 -8.55 -26.17 -9.86 -25.77 -11.19 -25.31 -12.49 -24.81 -13.82 -24.22 -15.12 -23.6 -16.44 -22.91 -17.73 -22.15 -19.01 -21.32 -20.26 0 0 -0.01 0.01zm0 -813l203.25 203.25 0 0 -10.27 10.81 -9.55 11.12 -8.85 11.45 -8.19 11.76 -7.52 12.05 -6.86 12.33 -6.21 12.59 -5.55 12.83 -4.91 13.06 -4.26 13.23 -3.61 13.41 -2.95 13.57 -2.3 13.67 -1.64 13.77 -0.99 13.83 -0.32 13.87 0.34 13.85 1 13.82 1.65 13.77 2.31 13.68 2.96 13.56 3.62 13.41 4.26 13.23 4.92 13.05 5.56 12.82 6.21 12.58 6.86 12.31 7.51 12.04 8.17 11.75 8.84 11.41 9.52 11.1 10.24 10.77 -203.25 203.25 -20.26 -21.32 -19.01 -22.15 -17.73 -22.91 -16.44 -23.59 -15.12 -24.23 -13.82 -24.8 -12.5 -25.32 -11.18 -25.76 -9.86 -26.18 -8.56 -26.51 -7.22 -26.82 -5.92 -27.05 -4.6 -27.23 -3.29 -27.4 -1.99 -27.48 -0.66 -27.54 0.65 -27.53 1.95 -27.49 3.26 -27.4 4.59 -27.25 5.89 -27.07 7.22 -26.84 8.54 -26.54 9.86 -26.2 11.18 -25.8 12.5 -25.35 13.83 -24.84 15.14 -24.26 16.46 -23.65 17.76 -22.94 19.04 -22.19 20.29 -21.35 0 0 0.01 -0.01zm813 0l-203.25 203.25 0 0 -10.77 -10.23 -11.1 -9.53 -11.41 -8.84 -11.75 -8.17 -12.03 -7.51 -12.32 -6.86 -12.58 -6.21 -12.82 -5.56 -13.05 -4.92 -13.23 -4.26 -13.41 -3.62 -13.56 -2.96 -13.68 -2.31 -13.77 -1.65 -13.82 -0.99 -13.85 -0.34 -13.87 0.32 -13.83 0.98 -13.77 1.64 -13.67 2.3 -13.57 2.96 -13.41 3.6 -13.23 4.26 -13.06 4.91 -12.83 5.56 -12.59 6.2 -12.33 6.86 -12.05 7.52 -11.76 8.19 -11.45 8.85 -11.12 9.56 -10.81 10.27 -203.25 -203.26 21.35 -20.29 22.2 -19.04 22.94 -17.76 23.64 -16.45 24.27 -15.15 24.84 -13.82 25.35 -12.51 25.8 -11.18 26.19 -9.85 26.54 -8.55 26.84 -7.21 27.07 -5.9 27.25 -4.58 27.41 -3.27 27.48 -1.95 27.54 -0.65 27.53 0.67 27.49 1.99 27.39 3.29 27.23 4.6 27.05 5.91 26.82 7.23 26.52 8.55 26.16 9.86 25.77 11.19 25.31 12.49 24.81 13.82 24.23 15.13 23.59 16.43 22.91 17.73 22.16 19.01 21.31 20.26 0 0 0.01 -0.01zm0 813l-203.25 -203.25 10.27 -10.8 9.55 -11.13 8.86 -11.45 8.18 -11.76 7.53 -12.05 6.85 -12.33 6.21 -12.59 5.55 -12.83 4.92 -13.05 4.25 -13.24 3.61 -13.41 2.95 -13.57 2.3 -13.67 1.64 -13.77 0.99 -13.83 0.32 -13.86 -0.34 -13.86 -0.99 -13.82 -1.66 -13.76 -2.31 -13.69 -2.96 -13.56 -3.61 -13.4 -4.27 -13.24 -4.91 -13.05 -5.56 -12.82 -6.21 -12.58 -6.86 -12.31 -7.52 -12.04 -8.17 -11.74 -8.84 -11.42 -9.52 -11.1 -10.24 -10.77 203.26 -203.25 20.26 21.32 19 22.15 17.74 22.91 16.43 23.6 15.13 24.22 13.82 24.81 12.49 25.31 11.19 25.77 9.86 26.17 8.55 26.51 7.23 26.82 5.91 27.05 4.6 27.23 3.29 27.4 1.99 27.48 0.67 27.54 -0.65 27.54 -1.96 27.48 -3.26 27.4 -4.58 27.26 -5.9 27.07 -7.21 26.83 -8.55 26.55 -9.85 26.19 -11.18 25.8 -12.51 25.35 -13.82 24.84 -15.15 24.27 -16.45 23.64 -17.76 22.94 -19.04 22.19 -20.29 21.36 -0.02 0z"/>
  </g>
  <g>
   <path fill="#2B2A29" fill-rule="nonzero" d="M11099.57 2650.83l-660.2 660.2 -203.25 -203.25 660.2 -660.2 203.25 203.25zm-227.25 -789l203.26 203.25 0 0 -10.24 10.77 -9.52 11.1 -8.84 11.41 -8.17 11.75 -7.51 12.04 -6.87 12.31 -6.2 12.58 -5.56 12.82 -4.92 13.05 -4.27 13.23 -3.61 13.41 -2.96 13.56 -2.31 13.68 -1.65 13.77 -1 13.82 -0.34 13.85 0.32 13.87 0.99 13.83 1.64 13.77 2.3 13.67 2.95 13.57 3.61 13.41 4.25 13.24 4.91 13.05 5.56 12.83 6.21 12.59 6.86 12.33 7.52 12.05 8.19 11.76 8.85 11.45 9.55 11.13 10.27 10.8 -203.25 203.25 -20.29 -21.35 -19.04 -22.19 -17.76 -22.95 -16.46 -23.64 -15.14 -24.27 -13.83 -24.84 -12.5 -25.34 -11.18 -25.81 -9.86 -26.19 -8.54 -26.54 -7.22 -26.84 -5.89 -27.07 -4.59 -27.25 -3.26 -27.4 -1.95 -27.49 -0.65 -27.54 0.67 -27.53 1.98 -27.49 3.29 -27.39 4.61 -27.23 5.91 -27.05 7.23 -26.82 8.55 -26.52 9.86 -26.16 11.18 -25.77 12.5 -25.31 13.82 -24.81 15.12 -24.22 16.44 -23.6 17.73 -22.91 19.01 -22.15 20.26 -21.32 0 0 -0.02 -0.01zm813 0l-203.25 203.25 0 0 -10.8 -10.27 -11.13 -9.55 -11.45 -8.85 -11.76 -8.19 -12.05 -7.52 -12.33 -6.86 -12.59 -6.21 -12.83 -5.56 -13.05 -4.91 -13.24 -4.25 -13.41 -3.61 -13.57 -2.95 -13.67 -2.3 -13.77 -1.64 -13.83 -0.99 -13.87 -0.32 -13.85 0.34 -13.82 0.99 -13.76 1.66 -13.69 2.31 -13.56 2.96 -13.4 3.61 -13.24 4.27 -13.05 4.91 -12.82 5.57 -12.58 6.2 -12.31 6.87 -12.04 7.51 -11.74 8.17 -11.42 8.84 -11.1 9.52 -10.77 10.24 -203.25 -203.26 21.32 -20.25 22.15 -19.01 22.91 -17.74 23.6 -16.43 24.22 -15.13 24.81 -13.82 25.31 -12.49 25.77 -11.18 26.16 -9.86 26.52 -8.56 26.82 -7.22 27.05 -5.92 27.23 -4.6 27.39 -3.29 27.49 -1.99 27.53 -0.66 27.54 0.64 27.48 1.96 27.41 3.26 27.25 4.59 27.07 5.89 26.84 7.21 26.54 8.55 26.19 9.85 25.81 11.18 25.34 12.51 24.84 13.83 24.27 15.14 23.64 16.45 22.94 17.76 22.2 19.04 21.35 20.29 0 0 0.01 0.02zm0 813l-203.25 -203.26 0 0 10.24 -10.77 9.52 -11.09 8.84 -11.42 8.17 -11.75 7.51 -12.03 6.86 -12.32 6.21 -12.57 5.56 -12.82 4.92 -13.05 4.26 -13.24 3.62 -13.41 2.96 -13.56 2.31 -13.68 1.65 -13.77 1 -13.82 0.34 -13.85 -0.32 -13.86 -0.99 -13.84 -1.64 -13.77 -2.3 -13.67 -2.95 -13.57 -3.61 -13.41 -4.26 -13.23 -4.9 -13.06 -5.56 -12.83 -6.21 -12.58 -6.86 -12.34 -7.52 -12.05 -8.19 -11.76 -8.85 -11.44 -9.55 -11.13 -10.27 -10.8 203.25 -203.26 20.29 21.35 19.04 22.2 17.76 22.94 16.45 23.64 15.15 24.27 13.83 24.84 12.5 25.34 11.18 25.81 9.85 26.19 8.55 26.54 7.22 26.84 5.89 27.07 4.59 27.26 3.26 27.4 1.95 27.48 0.65 27.54 -0.67 27.53 -1.98 27.5 -3.3 27.38 -4.6 27.23 -5.91 27.05 -7.23 26.82 -8.55 26.52 -9.86 26.16 -11.19 25.77 -12.49 25.32 -13.82 24.8 -15.12 24.23 -16.44 23.59 -17.73 22.91 -19.01 22.15 -20.26 21.32 0 0 0.01 0.02zm-813 0l203.26 -203.26 10.8 10.27 11.13 9.55 11.45 8.86 11.76 8.19 12.05 7.52 12.33 6.85 12.59 6.21 12.82 5.56 13.06 4.91 13.24 4.25 13.41 3.61 13.57 2.95 13.67 2.3 13.77 1.64 13.83 0.99 13.86 0.32 13.85 -0.34 13.82 -0.99 13.77 -1.65 13.69 -2.32 13.55 -2.96 13.41 -3.61 13.24 -4.27 13.05 -4.91 12.82 -5.56 12.58 -6.21 12.31 -6.86 12.04 -7.52 11.74 -8.17 11.42 -8.84 11.1 -9.52 10.77 -10.24 203.25 203.26 -21.32 20.26 -22.15 19.01 -22.91 17.73 -23.6 16.43 -24.22 15.13 -24.81 13.82 -25.31 12.49 -25.77 11.19 -26.16 9.86 -26.52 8.55 -26.82 7.23 -27.05 5.91 -27.23 4.6 -27.39 3.29 -27.49 1.99 -27.53 0.67 -27.54 -0.65 -27.49 -1.95 -27.4 -3.27 -27.25 -4.58 -27.07 -5.9 -26.84 -7.21 -26.54 -8.55 -26.19 -9.85 -25.81 -11.18 -25.34 -12.51 -24.84 -13.82 -24.27 -15.15 -23.64 -16.45 -22.95 -17.76 -22.19 -19.04 -21.35 -20.29 -0.02 -0.01z"/>
  </g>
  <g>
   <path fill="#2B2A29" fill-rule="nonzero" d="M5441.61 7549.15l660.2 -660.19 203.24 203.24 -660.19 660.2 -203.25 -203.25zm227.23 789.01l-203.25 -203.26 0 0 10.24 -10.77 9.52 -11.09 8.84 -11.42 8.17 -11.74 7.51 -12.04 6.86 -12.31 6.21 -12.58 5.56 -12.82 4.92 -13.05 4.26 -13.24 3.62 -13.41 2.96 -13.55 2.31 -13.69 1.65 -13.77 1 -13.82 0.34 -13.85 -0.32 -13.86 -0.99 -13.83 -1.64 -13.77 -2.3 -13.67 -2.95 -13.57 -3.61 -13.41 -4.26 -13.24 -4.91 -13.06 -5.55 -12.82 -6.21 -12.59 -6.86 -12.34 -7.52 -12.05 -8.19 -11.75 -8.85 -11.45 -9.55 -11.13 -10.27 -10.8 203.25 -203.26 20.29 21.36 19.04 22.19 17.76 22.94 16.45 23.64 15.15 24.27 13.83 24.84 12.5 25.35 11.18 25.8 9.86 26.19 8.54 26.55 7.22 26.84 5.89 27.06 4.59 27.26 3.26 27.4 1.95 27.48 0.65 27.54 -0.67 27.54 -1.98 27.48 -3.3 27.4 -4.6 27.23 -5.91 27.05 -7.23 26.82 -8.55 26.51 -9.86 26.17 -11.19 25.77 -12.49 25.31 -13.82 24.81 -15.12 24.23 -16.44 23.59 -17.73 22.91 -19.01 22.15 -20.26 21.32 0 0 0.01 0.01zm-812.99 0l203.25 -203.26 0 0 10.8 10.27 11.13 9.56 11.45 8.85 11.76 8.19 12.05 7.52 12.33 6.86 12.59 6.2 12.83 5.56 13.05 4.91 13.24 4.26 13.41 3.6 13.57 2.96 13.67 2.3 13.77 1.64 13.83 0.98 13.86 0.32 13.86 -0.34 13.81 -0.99 13.77 -1.65 13.69 -2.31 13.55 -2.96 13.41 -3.62 13.24 -4.26 13.05 -4.92 12.82 -5.56 12.58 -6.21 12.31 -6.86 12.04 -7.51 11.74 -8.17 11.42 -8.84 11.1 -9.53 10.77 -10.23 203.25 203.25 -21.31 20.26 -22.16 19.01 -22.91 17.73 -23.6 16.44 -24.22 15.12 -24.81 13.82 -25.31 12.49 -25.77 11.19 -26.16 9.86 -26.52 8.55 -26.82 7.23 -27.05 5.91 -27.23 4.6 -27.39 3.3 -27.49 1.98 -27.53 0.67 -27.54 -0.65 -27.49 -1.95 -27.4 -3.26 -27.25 -4.59 -27.07 -5.89 -26.84 -7.22 -26.54 -8.54 -26.19 -9.86 -25.8 -11.18 -25.35 -12.5 -24.84 -13.83 -24.27 -15.15 -23.64 -16.45 -22.95 -17.76 -22.19 -19.04 -21.35 -20.29 0 0 -0.01 -0.01zm0 -813l203.25 203.25 0 0 -10.24 10.77 -9.52 11.1 -8.84 11.42 -8.17 11.74 -7.51 12.04 -6.87 12.31 -6.2 12.58 -5.56 12.82 -4.92 13.05 -4.27 13.24 -3.61 13.41 -2.96 13.55 -2.31 13.69 -1.65 13.77 -1 13.81 -0.34 13.86 0.32 13.86 0.99 13.83 1.64 13.77 2.3 13.67 2.95 13.57 3.61 13.41 4.25 13.24 4.92 13.06 5.55 12.82 6.21 12.59 6.86 12.33 7.52 12.05 8.19 11.76 8.85 11.45 9.55 11.13 10.27 10.8 -203.25 203.25 -20.29 -21.35 -19.04 -22.19 -17.76 -22.94 -16.46 -23.65 -15.14 -24.26 -13.83 -24.84 -12.5 -25.35 -11.18 -25.8 -9.86 -26.2 -8.54 -26.54 -7.22 -26.84 -5.89 -27.07 -4.59 -27.25 -3.26 -27.4 -1.95 -27.49 -0.65 -27.53 0.67 -27.54 1.98 -27.48 3.3 -27.4 4.6 -27.23 5.91 -27.05 7.23 -26.82 8.55 -26.51 9.86 -26.18 11.18 -25.76 12.5 -25.32 13.82 -24.8 15.12 -24.23 16.44 -23.59 17.73 -22.91 19.01 -22.15 20.26 -21.32 0 0 -0.01 -0.01zm812.99 0l-203.25 203.25 -10.8 -10.27 -11.13 -9.55 -11.45 -8.85 -11.76 -8.19 -12.05 -7.52 -12.33 -6.86 -12.59 -6.21 -12.83 -5.56 -13.05 -4.9 -13.24 -4.26 -13.41 -3.6 -13.57 -2.96 -13.67 -2.3 -13.77 -1.64 -13.83 -0.99 -13.86 -0.32 -13.86 0.34 -13.82 1 -13.76 1.65 -13.69 2.31 -13.56 2.96 -13.4 3.62 -13.24 4.26 -13.05 4.92 -12.82 5.56 -12.58 6.21 -12.31 6.86 -12.04 7.51 -11.74 8.17 -11.42 8.84 -11.1 9.52 -10.77 10.24 -203.25 -203.25 21.31 -20.26 22.16 -19.01 22.91 -17.73 23.6 -16.44 24.22 -15.12 24.81 -13.82 25.31 -12.5 25.77 -11.18 26.16 -9.86 26.52 -8.56 26.82 -7.22 27.05 -5.92 27.23 -4.6 27.39 -3.29 27.49 -1.98 27.53 -0.67 27.54 0.65 27.48 1.95 27.41 3.26 27.25 4.59 27.07 5.89 26.84 7.22 26.54 8.54 26.19 9.86 25.8 11.18 25.35 12.5 24.84 13.83 24.27 15.14 23.64 16.46 22.94 17.76 22.2 19.04 21.35 20.29 0.01 0.01z"/>
  </g>
  <g>
   <path fill="#2B2A29" fill-rule="nonzero" d="M10929.87 7728.89l-660.2 -660.19 203.25 -203.25 660.2 660.2 -203.25 203.24zm789.01 -227.24l-203.26 203.26 0 0 -10.77 -10.24 -11.09 -9.52 -11.42 -8.84 -11.75 -8.17 -12.03 -7.52 -12.32 -6.86 -12.57 -6.21 -12.82 -5.56 -13.05 -4.91 -13.24 -4.27 -13.41 -3.61 -13.56 -2.96 -13.68 -2.31 -13.77 -1.66 -13.82 -0.99 -13.85 -0.34 -13.86 0.32 -13.84 0.99 -13.77 1.64 -13.67 2.3 -13.57 2.95 -13.41 3.61 -13.23 4.25 -13.06 4.91 -12.83 5.56 -12.59 6.21 -12.33 6.85 -12.05 7.53 -11.76 8.18 -11.44 8.86 -11.13 9.55 -10.8 10.27 -203.26 -203.25 21.35 -20.29 22.2 -19.04 22.94 -17.76 23.64 -16.46 24.27 -15.14 24.84 -13.83 25.34 -12.5 25.81 -11.18 26.19 -9.86 26.54 -8.54 26.84 -7.22 27.07 -5.89 27.26 -4.59 27.4 -3.26 27.48 -1.95 27.54 -0.65 27.53 0.66 27.5 1.99 27.38 3.29 27.23 4.6 27.05 5.92 26.82 7.22 26.52 8.56 26.16 9.86 25.77 11.18 25.32 12.5 24.8 13.82 24.23 15.12 23.59 16.44 22.91 17.73 22.15 19.01 21.32 20.26 0 0 0.02 -0.02zm0 813l-203.26 -203.25 0 0 10.27 -10.8 9.55 -11.13 8.86 -11.45 8.19 -11.76 7.52 -12.05 6.85 -12.33 6.21 -12.59 5.56 -12.83 4.91 -13.05 4.25 -13.24 3.61 -13.41 2.95 -13.57 2.3 -13.67 1.64 -13.77 0.99 -13.83 0.32 -13.87 -0.34 -13.85 -0.99 -13.82 -1.65 -13.77 -2.32 -13.68 -2.96 -13.56 -3.61 -13.41 -4.27 -13.23 -4.91 -13.05 -5.56 -12.82 -6.21 -12.58 -6.86 -12.31 -7.52 -12.04 -8.17 -11.75 -8.84 -11.41 -9.52 -11.1 -10.24 -10.77 203.26 -203.25 20.26 21.32 19.01 22.15 17.73 22.91 16.43 23.59 15.13 24.23 13.82 24.8 12.49 25.32 11.19 25.77 9.86 26.16 8.55 26.52 7.23 26.82 5.91 27.05 4.6 27.23 3.29 27.38 1.99 27.5 0.67 27.53 -0.65 27.54 -1.95 27.48 -3.27 27.4 -4.58 27.26 -5.9 27.07 -7.21 26.84 -8.55 26.54 -9.85 26.19 -11.18 25.81 -12.51 25.34 -13.82 24.84 -15.15 24.27 -16.45 23.64 -17.76 22.94 -19.04 22.2 -20.29 21.35 0 0 -0.01 0.01zm-813 0l203.25 -203.25 0 0 10.77 10.24 11.1 9.52 11.41 8.84 11.75 8.17 12.04 7.51 12.31 6.86 12.58 6.21 12.82 5.56 13.05 4.92 13.23 4.26 13.41 3.62 13.56 2.96 13.68 2.31 13.77 1.65 13.82 1 13.85 0.33 13.87 -0.32 13.83 -0.98 13.77 -1.64 13.67 -2.3 13.57 -2.96 13.41 -3.6 13.24 -4.26 13.05 -4.9 12.83 -5.57 12.59 -6.2 12.33 -6.86 12.05 -7.52 11.76 -8.19 11.45 -8.85 11.13 -9.56 10.8 -10.27 203.25 203.26 -21.35 20.29 -22.19 19.04 -22.95 17.76 -23.64 16.45 -24.27 15.15 -24.84 13.82 -25.34 12.51 -25.81 11.18 -26.19 9.85 -26.54 8.55 -26.84 7.21 -27.07 5.9 -27.25 4.59 -27.4 3.26 -27.49 1.95 -27.54 0.65 -27.53 -0.67 -27.49 -1.98 -27.39 -3.3 -27.23 -4.6 -27.05 -5.91 -26.82 -7.23 -26.52 -8.55 -26.16 -9.86 -25.77 -11.19 -25.31 -12.49 -24.81 -13.82 -24.22 -15.13 -23.6 -16.43 -22.91 -17.73 -22.15 -19.01 -21.32 -20.26 0 0 -0.01 0.01zm0 -813l203.25 203.26 -10.27 10.8 -9.55 11.13 -8.86 11.45 -8.18 11.75 -7.52 12.05 -6.86 12.34 -6.21 12.59 -5.56 12.82 -4.91 13.06 -4.25 13.24 -3.61 13.41 -2.95 13.57 -2.3 13.67 -1.64 13.77 -0.99 13.83 -0.32 13.86 0.34 13.85 0.99 13.82 1.66 13.77 2.31 13.69 2.96 13.55 3.61 13.41 4.27 13.24 4.91 13.05 5.57 12.82 6.2 12.58 6.87 12.31 7.51 12.04 8.17 11.74 8.84 11.42 9.52 11.09 10.24 10.77 -203.26 203.26 -20.25 -21.32 -19.01 -22.15 -17.74 -22.91 -16.43 -23.6 -15.13 -24.22 -13.82 -24.81 -12.49 -25.31 -11.19 -25.77 -9.86 -26.17 -8.55 -26.51 -7.22 -26.82 -5.92 -27.05 -4.6 -27.24 -3.29 -27.38 -1.99 -27.49 -0.66 -27.54 0.64 -27.53 1.96 -27.49 3.26 -27.4 4.59 -27.25 5.89 -27.07 7.21 -26.84 8.55 -26.54 9.85 -26.19 11.18 -25.81 12.51 -25.35 13.83 -24.83 15.14 -24.27 16.45 -23.64 17.76 -22.95 19.04 -22.19 20.29 -21.35 0.02 -0.02z"/>
  </g>
  <text x="301.87" y="2813.01"  fill="#FFED00" font-weight="bold" font-size="4182.82px" font-family="Courier New">T</text>
  <text x="301.87" y="6238.88"  fill="#FFED00" font-weight="bold" font-size="4182.82px" font-family="Courier New">W</text>
  <text x="301.87" y="9664.75"  fill="#FFED00" font-weight="bold" font-size="4182.82px" font-family="Courier New">5</text>
  <text x="301.87" y="13090.62"  fill="#FFED00" font-weight="bold" font-size="4182.82px" font-family="Courier New">F</text>
  <text x="3757.23" y="13118.3"  fill="#FFED00" font-weight="bold" font-size="4182.82px" font-family="Courier New">A</text>
  <text x="7196.43" y="13118.3"  fill="#FFED00" font-weight="bold" font-size="4182.82px" font-family="Courier New">R</text>
  <text x="10635.65" y="13118.3"  fill="#FFED00" font-weight="bold" font-size="4182.82px" font-family="Courier New">M</text>
 </g>
</svg>
